<?xml version="1.0" encoding="utf-8"?>
<!-- Generator: $$$/GeneralStr/196=Adobe Illustrator 27.6.0, SVG Export Plug-In . SVG Version: 6.00 Build 0)  -->
<svg version="1.1" id="Ebene_1" xmlns="http://www.w3.org/2000/svg" xmlns:xlink="http://www.w3.org/1999/xlink" x="0px" y="0px"
	 viewBox="0 0 850.39 850.39" style="enable-background:new 0 0 850.39 850.39;" xml:space="preserve">
<style type="text/css">
	.st0{fill-rule:evenodd;clip-rule:evenodd;fill:none;}
	.st1{fill:#FFFFFF;stroke:#FFFFFF;stroke-width:14.4087;stroke-miterlimit:10;}
	.st2{font-family:'CollegeCondensed';}
	.st3{font-size:88.0364px;}
	.st4{letter-spacing:-3;}
	.st5{letter-spacing:-1;}
	.st6{letter-spacing:-8;}
	.st7{fill-rule:evenodd;clip-rule:evenodd;fill:#FFFFFF;}
	.st8{fill:#FFFFFF;}
	.st9{fill-rule:evenodd;clip-rule:evenodd;fill:#010202;}
	.st10{fill-rule:evenodd;clip-rule:evenodd;fill:#ADADAD;}
	.st11{fill-rule:evenodd;clip-rule:evenodd;fill:#E30D18;}
	.st12{fill:#1D1D1C;}
	.st13{display:none;}
	.st14{display:inline;}
	.st15{fill-rule:evenodd;clip-rule:evenodd;fill:#948176;}
	.st16{fill-rule:evenodd;clip-rule:evenodd;fill:#67594F;}
	.st17{fill-rule:evenodd;clip-rule:evenodd;fill:#AD9C95;}
	.st18{fill-rule:evenodd;clip-rule:evenodd;fill:#6A6A69;}
	.st19{fill-rule:evenodd;clip-rule:evenodd;fill:#C7C6C7;}
	.st20{fill-rule:evenodd;clip-rule:evenodd;fill:#056938;}
	.st21{fill-rule:evenodd;clip-rule:evenodd;fill:#044927;}
	.st22{fill-rule:evenodd;clip-rule:evenodd;fill:#028D46;}
	.st23{fill-rule:evenodd;clip-rule:evenodd;fill:#F5AB3C;}
	.st24{fill-rule:evenodd;clip-rule:evenodd;fill:#DD7D1D;}
	.st25{fill-rule:evenodd;clip-rule:evenodd;fill:#F9BC6A;}
</style>
<g>
	<g>
		<g>
			<g>
				<path id="SVGID_x5F_1_x5F_" class="st0" d="M190.87,419.51c-3.8-127.83,96.74-234.55,224.56-238.34
					c127.84-3.8,234.55,96.74,238.35,224.56c3.81,127.83-96.73,234.54-224.56,238.34C301.38,647.88,194.67,547.33,190.87,419.51z"/>
				<text>				<textPath  xlink:href="#SVGID_x5F_1_x5F_" startOffset="100.8137%">
<tspan  class="st1" style="font-family:'CollegeBold'; font-size:82.6719px; letter-spacing:-50;">ENTENWERFER</tspan>				</textPath>
</text>
				<text transform="matrix(1 0 0 1 142.3501 730.6104)"><tspan x="0" y="0" class="st1 st2 st3">R</tspan><tspan x="42.99" y="0" class="st1 st2 st3 st4">O</tspan><tspan x="73.85" y="0" class="st1 st2 st3 st5">TH</tspan><tspan x="156.31" y="0" class="st1 st2 st3">E</tspan><tspan x="194.99" y="0" class="st1 st2 st3 st5">NBU</tspan><tspan x="318.67" y="0" class="st1 st2 st3">RGS</tspan><tspan x="430.44" y="0" class="st1 st2 st3 st5">O</tspan><tspan x="463.06" y="0" class="st1 st2 st3 st6">R</tspan><tspan x="497.25" y="0" class="st1 st2 st3">T</tspan></text>
			</g>
			<g>
				<path class="st7" d="M675.5,638.12c24.73-7.51,34.59-16.3,36.22-18.55c10.17-14.02,15.29-33.06,18.64-40.13
					c1.48-3.13,2.97-6.25,4.43-9.38c0.05-0.03,0.1-0.06,0.15-0.1c1.05-0.69,2.09-1.38,3.13-2.09c0.12-0.08,0.24-0.16,0.35-0.24
					c1.04-0.71,2.06-1.42,3.07-2.14c0.11-0.08,0.22-0.16,0.33-0.24c1.02-0.72,2.02-1.46,3.01-2.2c0.11-0.08,0.22-0.16,0.32-0.24
					c0.99-0.74,1.98-1.49,2.95-2.25c0.1-0.08,0.2-0.16,0.31-0.24c0.97-0.76,1.94-1.53,2.89-2.3c0.09-0.08,0.19-0.16,0.28-0.23
					c0.96-0.78,1.91-1.57,2.84-2.37c0.09-0.07,0.17-0.15,0.26-0.22c0.94-0.8,1.87-1.61,2.8-2.43c0.08-0.07,0.15-0.14,0.23-0.21
					c0.92-0.82,1.84-1.65,2.75-2.49c0.07-0.06,0.13-0.13,0.21-0.19c0.91-0.85,1.81-1.69,2.7-2.55c0.06-0.05,0.12-0.11,0.17-0.17
					c0.89-0.86,1.78-1.74,2.65-2.62c0.05-0.04,0.09-0.09,0.14-0.14c0.88-0.89,1.75-1.79,2.61-2.69c0.03-0.03,0.07-0.07,0.1-0.1
					c0.87-0.92,1.73-1.84,2.57-2.77c0.02-0.02,0.03-0.04,0.05-0.06c14.74-16.22,25.79-34.34,32.78-53.18
					c0.04-0.1,0.08-0.21,0.12-0.31c0.34-0.92,0.67-1.85,0.99-2.78c0.07-0.21,0.15-0.42,0.22-0.63c0.29-0.85,0.57-1.71,0.84-2.56
					c0.09-0.29,0.19-0.57,0.28-0.86c0.25-0.8,0.49-1.61,0.73-2.41c0.1-0.34,0.2-0.68,0.3-1.02c0.22-0.76,0.42-1.52,0.63-2.28
					c0.1-0.39,0.21-0.77,0.31-1.16c0.19-0.73,0.37-1.45,0.54-2.18c0.1-0.42,0.21-0.85,0.31-1.27c0.16-0.7,0.32-1.39,0.47-2.09
					c0.1-0.46,0.2-0.92,0.3-1.37c0.14-0.67,0.27-1.34,0.4-2c0.09-0.49,0.19-0.98,0.28-1.47c0.12-0.65,0.22-1.29,0.33-1.93
					c0.08-0.51,0.17-1.03,0.25-1.54c0.1-0.63,0.19-1.25,0.27-1.88c0.07-0.53,0.15-1.07,0.21-1.59c0.08-0.61,0.15-1.22,0.22-1.84
					c0.06-0.54,0.12-1.09,0.18-1.64c0.06-0.59,0.11-1.19,0.16-1.79c0.05-0.57,0.1-1.13,0.14-1.69c0.04-0.58,0.08-1.16,0.11-1.75
					c0.03-0.57,0.07-1.15,0.09-1.73c0.03-0.57,0.05-1.14,0.06-1.7c0.02-0.59,0.04-1.18,0.05-1.78c0.01-0.55,0.02-1.11,0.02-1.66
					c0-0.6,0-1.2,0-1.8c0-0.54-0.01-1.09-0.02-1.63c-0.01-0.61-0.03-1.22-0.05-1.83c-0.02-0.53-0.04-1.06-0.07-1.59
					c-0.03-0.62-0.06-1.24-0.1-1.86c-0.03-0.52-0.07-1.04-0.11-1.57c-0.05-0.63-0.1-1.25-0.16-1.88c-0.05-0.51-0.09-1.03-0.15-1.54
					c-0.06-0.63-0.14-1.26-0.21-1.89c-0.06-0.51-0.12-1.01-0.19-1.52c-0.08-0.64-0.18-1.27-0.27-1.91
					c-0.08-0.49-0.15-0.99-0.23-1.48c-0.1-0.64-0.22-1.28-0.33-1.92c-0.09-0.49-0.17-0.97-0.26-1.46c-0.12-0.65-0.26-1.29-0.39-1.93
					c-0.1-0.48-0.2-0.96-0.31-1.43c-0.14-0.65-0.3-1.29-0.45-1.94c-0.11-0.47-0.22-0.94-0.34-1.41c-0.16-0.65-0.34-1.3-0.51-1.95
					c-0.12-0.46-0.25-0.92-0.38-1.38c-0.18-0.65-0.38-1.3-0.58-1.95c-0.13-0.45-0.27-0.9-0.41-1.35c-0.21-0.65-0.42-1.3-0.64-1.95
					c-0.15-0.45-0.29-0.89-0.45-1.34c-0.23-0.65-0.47-1.3-0.7-1.95c-0.16-0.44-0.32-0.88-0.48-1.31c-0.25-0.66-0.51-1.31-0.77-1.96
					c-0.17-0.42-0.34-0.85-0.51-1.27c-0.28-0.66-0.56-1.31-0.85-1.97c-0.18-0.41-0.36-0.83-0.54-1.24c-0.3-0.66-0.61-1.32-0.92-1.97
					c-0.19-0.4-0.38-0.81-0.57-1.21c-0.32-0.66-0.66-1.31-1-1.97c-0.2-0.39-0.4-0.79-0.6-1.18c-0.35-0.67-0.72-1.34-1.09-2.01
					c-0.21-0.37-0.4-0.74-0.6-1.11c-0.39-0.69-0.79-1.37-1.2-2.05c-0.2-0.34-0.4-0.69-0.61-1.04c-0.45-0.74-0.91-1.47-1.37-2.2
					c-0.18-0.28-0.35-0.56-0.53-0.84c-0.65-1.01-1.32-2.02-2.01-3.01c-12.67-18.42-29.89-32.67-49.88-42.52
					C703.72,186.9,575.08,83.71,422.32,83.71c-170.62,0-311.15,128.72-329.84,294.34c-8.83-4.76-18.34-8.2-28.79-9.67
					c-3.81-0.53-7.85-1.01-11.58-0.41c-6,0.97-11.28,3.78-15.89,7.64c-2.39,2.01-3.44,4.56-3.27,7.35c0.4,6.4,2.82,12.2,6.94,17.34
					c4.53,5.66,10.57,9.68,16.85,13.39c10.74,6.35,22.02,11.56,33.89,15.47c3.26,81.6,35.96,155.62,87.79,211.72h-73.79v32.97H32.98
					l53.21,51.6l-50.17,51.59h153.56v-16.5h467.04v16.5h153.56l-50.18-51.59l53.22-51.6h-71.66v-32.97h-75.35
					c0.65-0.71,1.31-1.4,1.95-2.1C671.43,638.72,674.14,638.53,675.5,638.12z"/>
				<path class="st8" d="M823.11,782.51H651.16V766H195.04v16.5H23.1l55.37-56.94l-58.96-57.18h79.67v-32.96h67.08
					c-48.55-56.55-77.1-127.79-80.91-202.29c-10.7-3.79-21.24-8.74-31.38-14.74c-6.5-3.84-13.22-8.27-18.34-14.68
					c-4.93-6.17-7.66-13.04-8.12-20.42c-0.28-4.6,1.57-8.81,5.21-11.87c5.73-4.81,11.97-7.79,18.53-8.85
					c1.46-0.24,2.99-0.35,4.66-0.35c3.02,0,5.99,0.38,8.55,0.74c8.08,1.14,15.84,3.38,23.55,6.8
					c10.74-78.89,49.18-151.47,108.77-205.06c61.99-55.76,142.09-86.46,225.55-86.46c75.38,0,146.67,24.31,206.16,70.29
					c56.98,44.04,99,106.12,118.53,175.03c20.56,10.55,37.29,25.08,49.76,43.22c0.72,1.04,1.42,2.09,2.1,3.15l0.54,0.87
					c0.49,0.77,0.97,1.54,1.44,2.31l0.63,1.08c0.43,0.72,0.85,1.43,1.25,2.16l0.73,1.33c0.36,0.64,0.71,1.28,1.05,1.93l0.8,1.57
					c0.3,0.58,0.59,1.16,0.88,1.74l0.6,1.26c0.35,0.75,0.67,1.41,0.96,2.07l0.68,1.55c0.26,0.6,0.52,1.2,0.78,1.81
					c0.13,0.32,0.27,0.65,0.39,0.98l0.21,0.53c0.25,0.63,0.5,1.25,0.74,1.88l0.5,1.36c0.27,0.74,0.51,1.4,0.74,2.06
					c0.11,0.32,0.23,0.68,0.35,1.02l0.12,0.36c0.23,0.68,0.45,1.36,0.67,2.05c0.12,0.4,0.24,0.8,0.36,1.2l0.07,0.22
					c0.21,0.69,0.41,1.36,0.6,2.04c0.11,0.37,0.21,0.75,0.31,1.14l0.08,0.3c0.18,0.67,0.36,1.35,0.53,2.03l0.36,1.47
					c0.16,0.68,0.32,1.36,0.47,2.04c0.11,0.49,0.22,1,0.32,1.51c0.14,0.66,0.28,1.34,0.41,2.01c0.08,0.43,0.16,0.86,0.24,1.29
					l0.04,0.24c0.12,0.67,0.24,1.34,0.35,2.01c0.07,0.42,0.13,0.84,0.19,1.26l0.04,0.28c0.1,0.68,0.2,1.34,0.29,2.01
					c0.07,0.52,0.13,1.05,0.2,1.57c0.08,0.66,0.16,1.32,0.23,1.98c0.05,0.54,0.1,1.07,0.15,1.61c0.06,0.65,0.11,1.3,0.16,1.95
					c0.04,0.56,0.08,1.1,0.11,1.65c0.04,0.65,0.08,1.29,0.11,1.93c0.03,0.56,0.05,1.11,0.07,1.66c0.02,0.65,0.04,1.28,0.05,1.92
					c0.02,0.58,0.02,1.14,0.03,1.71c0.01,0.63,0.01,1.26,0,1.89c0,0.56-0.01,1.15-0.02,1.72c-0.01,0.63-0.03,1.24-0.05,1.86
					c-0.02,0.58-0.04,1.18-0.07,1.77c-0.03,0.61-0.06,1.21-0.1,1.81c-0.03,0.6-0.07,1.21-0.12,1.81c-0.04,0.59-0.09,1.18-0.14,1.76
					c-0.06,0.62-0.11,1.24-0.17,1.86c-0.06,0.57-0.12,1.15-0.18,1.72c-0.07,0.63-0.14,1.26-0.23,1.9c-0.07,0.56-0.15,1.11-0.23,1.67
					c-0.09,0.64-0.18,1.29-0.28,1.95c-0.08,0.54-0.17,1.08-0.26,1.61c-0.11,0.66-0.22,1.33-0.34,2c-0.09,0.48-0.18,0.96-0.27,1.44
					c-0.15,0.79-0.29,1.48-0.43,2.18l-0.31,1.44c-0.15,0.71-0.31,1.44-0.48,2.17l-0.32,1.33c-0.2,0.82-0.38,1.54-0.56,2.26
					l-0.33,1.2c-0.22,0.8-0.43,1.59-0.65,2.38l-0.31,1.06c-0.25,0.84-0.5,1.67-0.76,2.5l-0.3,0.9c-0.28,0.87-0.56,1.76-0.87,2.65
					l-0.23,0.65c-0.33,0.96-0.67,1.92-1.02,2.88l-0.11,0.3c-7.37,19.85-18.76,38.34-33.87,54.97c-0.92,1.02-1.81,1.96-2.7,2.91
					l-0.2,0.21c-0.78,0.83-1.68,1.75-2.59,2.67l-0.16,0.16c-0.88,0.89-1.8,1.79-2.72,2.68l-0.22,0.21c-0.87,0.84-1.8,1.72-2.73,2.59
					l-3.87-3.86l3.73,3.98c-1.01,0.93-1.95,1.79-2.9,2.63l-0.25,0.22c-0.93,0.83-1.89,1.66-2.86,2.48l-0.27,0.23
					c-0.96,0.82-1.94,1.63-2.92,2.43l-0.27,0.22c-1.01,0.82-2.01,1.61-3.01,2.4l-0.32,0.25c-1,0.77-2.01,1.55-3.03,2.31l-0.26,0.19
					c-1.09,0.82-2.12,1.57-3.17,2.32l-0.29,0.21c-1.09,0.78-2.14,1.51-3.21,2.24l-0.3,0.21c-0.72,0.49-1.42,0.96-2.12,1.42
					c-0.73,1.56-1.46,3.11-2.2,4.66l-1.58,3.34c-0.83,1.75-1.87,4.57-3.08,7.84c-3.3,8.93-8.29,22.42-16.07,33.17
					c-1.98,2.73-7.68,7.56-18.31,12.66h49.18v32.96h79.68l-58.97,57.18L823.11,782.51z M662.08,771.59h135.17l-44.97-46.25
					l47.47-46.03h-63.65v-32.97h-82.35l9.3-10.08c0.36-0.38,0.72-0.77,1.07-1.16l1.58-1.74l2.35-0.04c4.53-0.09,5.73-0.4,5.85-0.43
					c25.76-7.82,33.34-16.47,33.4-16.55c6.89-9.51,11.38-21.66,14.66-30.52c1.3-3.51,2.42-6.55,3.45-8.72l1.59-3.35
					c0.94-2,1.89-3.99,2.83-6l0.7-1.5l1.41-0.86c1.03-0.67,2.04-1.35,3.04-2.03l0.26-0.18c1.09-0.75,2.08-1.44,3.07-2.14l0.34-0.24
					c0.98-0.7,1.95-1.41,2.92-2.13l0.33-0.24c0.95-0.71,1.91-1.44,2.85-2.18l0.31-0.24c0.93-0.73,1.87-1.48,2.8-2.23l0.3-0.24
					c0.91-0.74,1.83-1.51,2.74-2.28l0.25-0.21c0.92-0.78,1.82-1.57,2.72-2.36l0.24-0.22c0.88-0.78,1.77-1.59,2.65-2.4l0.28-0.26
					c0.8-0.74,1.67-1.56,2.53-2.4l3.91,3.82l-3.74-3.98c0.88-0.85,1.74-1.7,2.58-2.55l0.12-0.13c0.85-0.86,1.7-1.73,2.53-2.61
					l0.11-0.12c0.83-0.88,1.67-1.77,2.49-2.68c14.2-15.64,24.87-32.94,31.75-51.46l0.12-0.31c0.33-0.89,0.64-1.78,0.95-2.67
					l0.21-0.6c0.28-0.82,0.55-1.65,0.81-2.46l0.27-0.83c0.24-0.77,0.47-1.55,0.7-2.32l0.3-0.99c0.21-0.72,0.4-1.45,0.6-2.18
					l0.3-1.12c0.17-0.65,0.33-1.31,0.49-1.97l0.33-1.33c0.16-0.67,0.3-1.34,0.45-2.01l0.29-1.32c0.14-0.65,0.26-1.29,0.38-1.93
					c0.1-0.54,0.19-0.97,0.27-1.41c0.11-0.62,0.22-1.23,0.32-1.85c0.08-0.5,0.16-1,0.24-1.48c0.09-0.59,0.17-1.19,0.26-1.79
					c0.07-0.52,0.14-1.04,0.21-1.55c0.07-0.57,0.14-1.15,0.21-1.74c0.06-0.53,0.12-1.06,0.17-1.58c0.06-0.57,0.11-1.14,0.15-1.72
					c0.05-0.54,0.09-1.09,0.13-1.63c0.04-0.54,0.08-1.1,0.11-1.66c0.03-0.55,0.06-1.11,0.09-1.66c0.02-0.53,0.04-1.08,0.06-1.62
					c0.02-0.57,0.04-1.14,0.05-1.71c0.01-0.52,0.01-1.05,0.02-1.58c0-0.58,0-1.16,0-1.73c-0.01-0.52-0.01-1.04-0.02-1.57
					c-0.01-0.57-0.03-1.16-0.05-1.75c-0.02-0.5-0.04-1.01-0.06-1.52c-0.03-0.59-0.06-1.19-0.1-1.79c-0.03-0.49-0.07-0.99-0.1-1.49
					c-0.04-0.59-0.1-1.19-0.15-1.8c-0.04-0.48-0.09-0.97-0.14-1.47c-0.06-0.6-0.13-1.2-0.21-1.8c-0.06-0.49-0.12-0.97-0.18-1.45
					c-0.08-0.61-0.17-1.22-0.26-1.82l-0.22-1.41c-0.1-0.62-0.21-1.23-0.32-1.84l-0.25-1.39c-0.12-0.62-0.25-1.23-0.37-1.84
					c-0.09-0.46-0.19-0.91-0.29-1.35c-0.14-0.63-0.29-1.25-0.43-1.87l-0.33-1.34c-0.16-0.61-0.32-1.23-0.49-1.85l-0.36-1.31
					c-0.18-0.63-0.36-1.24-0.55-1.85l-0.4-1.3c-0.19-0.63-0.4-1.24-0.61-1.86l-0.13-0.39c-0.1-0.29-0.19-0.58-0.3-0.87
					c-0.21-0.61-0.43-1.2-0.65-1.79l-0.49-1.33c-0.22-0.57-0.45-1.13-0.67-1.7l-0.55-1.37c-0.23-0.56-0.47-1.1-0.71-1.65l-0.63-1.44
					c-0.27-0.59-0.55-1.19-0.83-1.78l-0.59-1.25c-0.25-0.52-0.52-1.03-0.78-1.55l-0.75-1.47c-0.3-0.57-0.62-1.16-0.94-1.74
					l-0.67-1.23c-0.37-0.66-0.76-1.31-1.14-1.96l-0.58-1c-0.42-0.7-0.86-1.39-1.31-2.09l-0.5-0.8c-0.62-0.97-1.26-1.93-1.92-2.88
					c-11.85-17.22-27.92-30.92-47.79-40.72l-2.2-1.08l-0.65-2.36c-38.85-141.1-168.3-239.64-314.81-239.64
					c-166.32,0-305.79,124.46-324.42,289.5l-0.9,8.03l-7.11-3.83c-8.9-4.8-17.72-7.77-26.96-9.07c-3.21-0.45-7.19-0.87-9.94-0.42
					c-4.59,0.74-9.05,2.91-13.25,6.43c-1,0.84-1.4,1.69-1.33,2.84c0.32,5.08,2.25,9.89,5.75,14.27c3.8,4.75,8.89,8.27,15.37,12.1
					c10.6,6.26,21.64,11.31,32.82,14.98l3.6,1.19l0.15,3.78c3.09,77.35,33.76,151.3,86.35,208.23l8.47,9.16H110.1v32.97H46.45
					l47.47,46.03l-44.97,46.25h135.18v-16.51h477.96V771.59z"/>
			</g>
		</g>
		
			<ellipse transform="matrix(0.7071 -0.7071 0.7071 0.7071 -170.2387 420.3799)" class="st9" cx="422.32" cy="415.69" rx="331.98" ry="331.98"/>
		<g>
			
				<ellipse transform="matrix(0.7071 -0.7071 0.7071 0.7071 -170.2388 420.3802)" class="st10" cx="422.32" cy="415.69" rx="317.07" ry="317.07"/>
			<path class="st8" d="M422.33,98.61c175.12,0,317.07,141.96,317.07,317.07c0,175.11-141.95,317.07-317.07,317.07
				c-175.11,0-317.07-141.96-317.07-317.07C105.25,240.57,247.21,98.61,422.33,98.61 M422.33,93.93
				c-43.44,0-85.57,8.51-125.24,25.29c-38.32,16.21-72.72,39.4-102.27,68.95c-29.55,29.55-52.75,63.96-68.95,102.27
				c-16.78,39.67-25.29,81.81-25.29,125.24c0,43.44,8.51,85.57,25.29,125.24c16.21,38.31,39.4,72.72,68.95,102.27
				c29.55,29.55,63.96,52.75,102.27,68.95c39.67,16.78,81.81,25.29,125.24,25.29c43.44,0,85.57-8.5,125.24-25.29
				c38.31-16.2,72.72-39.4,102.27-68.95c29.55-29.55,52.75-63.95,68.95-102.27c16.78-39.67,25.28-81.81,25.28-125.24
				c0-43.43-8.51-85.57-25.28-125.24c-16.21-38.32-39.4-72.72-68.95-102.27c-29.55-29.55-63.96-52.75-102.27-68.95
				C507.9,102.44,465.76,93.93,422.33,93.93L422.33,93.93z"/>
		</g>
		<g>
			<circle class="st11" cx="422.32" cy="415.69" r="206.84"/>
			<path class="st8" d="M422.32,208.85c114.24,0,206.84,92.6,206.84,206.84c0,114.23-92.6,206.84-206.84,206.84
				c-114.24,0-206.84-92.61-206.84-206.84C215.48,301.45,308.09,208.85,422.32,208.85 M422.32,204.17
				c-56.5,0-109.62,22-149.57,61.95c-39.95,39.95-61.95,93.07-61.95,149.57c0,56.5,22,109.62,61.95,149.57
				c39.95,39.95,93.07,61.95,149.57,61.95c56.5,0,109.62-22,149.57-61.95c39.95-39.95,61.95-93.07,61.95-149.57
				c0-56.5-22-109.62-61.95-149.57C531.94,226.17,478.82,204.17,422.32,204.17L422.32,204.17z"/>
		</g>
		<g>
			<g>
				<path class="st12" d="M214.99,309.81l-10-6.13l3.07-5l-30-18.4l-3.07,5l-10-6.13l21.46-35l15,9.2l-6.13,10l-5-3.07l-6.13,10
					l10,6.13l6.13-10l10,6.13l-6.13,10l10,6.13l6.13-10l-5-3.07l6.13-10l15,9.2L214.99,309.81z"/>
				<path class="st8" d="M215.5,311.96l-12.66-7.76l3.07-5l-27.34-16.76l-3.07,5l-12.66-7.76l23.09-37.65l17.66,10.83l-7.76,12.66
					l-5-3.07l-4.5,7.34l7.34,4.5l6.13-10l12.66,7.76l-6.13,10l7.34,4.5l4.5-7.34l-5-3.07l7.76-12.66l17.66,10.83L215.5,311.96z
					 M207.13,303.17l7.34,4.5l19.83-32.34l-12.34-7.57l-4.5,7.34l5,3.07l-7.76,12.66l-12.66-7.76l6.13-10l-7.34-4.5l-6.13,10
					l-12.66-7.76l7.76-12.66l5,3.07l4.5-7.34l-12.34-7.57l-19.83,32.34l7.34,4.5l3.07-5l32.66,20.03L207.13,303.17z"/>
			</g>
			<g>
				<path class="st12" d="M238.72,270.84l-8.41-8.18l4.09-4.2l-25.23-24.53l-4.09,4.21l-8.41-8.18l12.27-12.61l36.29,10.75
					l-15.61-15.19l-4.09,4.2l-8.41-8.18l16.35-16.82l8.41,8.18l-4.09,4.2l33.64,32.71l-8.18,8.41l-36.29-10.75l15.62,15.19l4.09-4.2
					l8.41,8.18L238.72,270.84z"/>
				<path class="st8" d="M238.75,273.05l-10.64-10.35l4.09-4.2l-22.99-22.36l-4.09,4.2l-10.64-10.35l14.01-14.41l31.13,9.22
					l-9.96-9.69l-4.09,4.2l-10.64-10.35l18.53-19.05l10.65,10.35l-4.09,4.2l33.63,32.71l-9.92,10.2l-31.13-9.22l9.96,9.69l4.09-4.2
					l10.64,10.35L238.75,273.05z M232.52,262.63l6.17,6l14.18-14.58l-6.17-6l-4.09,4.21l-21.27-20.69l41.46,12.28l6.43-6.61
					l-33.64-32.71l4.09-4.21l-6.17-6l-14.18,14.58l6.17,6l4.09-4.2l21.27,20.68L209.4,219.1l-10.52,10.82l6.17,6l4.09-4.2
					l27.46,26.7L232.52,262.63z"/>
			</g>
			<g>
				<path class="st12" d="M282.54,228.99l-6.63-9.67l4.84-3.31l-19.89-29.02l-4.84,3.31l3.31,4.84l-9.67,6.63l-9.95-14.51
					l38.7-26.52l9.95,14.51l-9.67,6.63l-3.32-4.84l-4.84,3.32l19.89,29.02l4.84-3.31l6.63,9.67L282.54,228.99z"/>
				<path class="st8" d="M282.13,231.15l-8.39-12.25l4.84-3.31l-18.13-26.45l-2.27,1.55l3.32,4.84l-12.25,8.39l-11.71-17.08
					l41.27-28.29l11.71,17.09l-12.25,8.39l-3.31-4.84l-2.27,1.55l18.13,26.45l4.84-3.31l8.39,12.25L282.13,231.15z M278.07,219.72
					l4.87,7.1l16.78-11.5l-4.87-7.1l-4.84,3.31l-21.66-31.6l7.41-5.08l3.31,4.84l7.1-4.87L278,162.89l-36.13,24.76l8.18,11.94
					l7.1-4.87l-3.32-4.84l7.41-5.08l21.66,31.6L278.07,219.72z"/>
			</g>
			<g>
				<path class="st12" d="M308.65,211.03l-4.84-10.68l5.34-2.42l-14.51-32.05l-5.34,2.42l-4.84-10.68l37.4-16.93l7.26,16.03
					l-10.69,4.84l-2.42-5.34l-10.69,4.84l4.84,10.68l10.69-4.84l4.84,10.69L315,182.4l4.84,10.69l10.68-4.84l-2.42-5.34l10.69-4.84
					l7.26,16.03L308.65,211.03z"/>
				<path class="st8" d="M307.87,213.09l-6.12-13.52l5.34-2.42l-13.22-29.21l-5.34,2.42l-6.12-13.53l40.24-18.22l8.54,18.87
					l-13.53,6.12l-2.42-5.34l-7.84,3.55l3.55,7.84l10.69-4.84l6.12,13.53l-10.68,4.84l3.55,7.84l7.84-3.55l-2.42-5.34l13.53-6.12
					l8.54,18.87L307.87,213.09z M305.88,201.12l3.55,7.84l34.56-15.64l-5.97-13.19l-7.84,3.55l2.42,5.34l-13.52,6.12l-6.12-13.53
					l10.69-4.84l-3.55-7.84l-10.69,4.84l-6.12-13.53l13.53-6.12l2.42,5.34l7.84-3.55l-5.97-13.19l-34.56,15.64l3.55,7.84l5.34-2.42
					l15.8,34.9L305.88,201.12z"/>
			</g>
			<g>
				<path class="st12" d="M350.11,192.09l-2.35-11.49l5.74-1.17l-7.04-34.48l-5.75,1.17l-2.35-11.49l17.24-3.52l23.94,29.31
					l-4.36-21.34l-5.74,1.17l-2.35-11.49l22.98-4.69l2.35,11.49l-5.74,1.17l9.39,45.97l-11.49,2.34l-23.94-29.31l4.36,21.34
					l5.74-1.17l2.35,11.49L350.11,192.09z"/>
				<path class="st8" d="M348.89,193.93l-2.97-14.55l5.75-1.17l-6.42-31.42l-5.75,1.17l-2.97-14.55l19.69-4.02l20.54,25.15
					l-2.78-13.61l-5.75,1.17l-2.97-14.55l26.04-5.32l2.97,14.55l-5.75,1.17l9.39,45.97l-13.95,2.84l-20.54-25.14l2.78,13.61
					l5.75-1.17l2.97,14.55L348.89,193.93z M349.6,181.82l1.72,8.44l19.93-4.07l-1.72-8.44l-5.75,1.17l-5.93-29.07l27.35,33.48
					l9.04-1.84l-9.39-45.97l5.74-1.17l-1.72-8.43l-19.93,4.07l1.72,8.43l5.74-1.17l5.94,29.07L355,132.83l-14.79,3.02l1.72,8.44
					l5.74-1.17l7.66,37.54L349.6,181.82z"/>
			</g>
			<g>
				<path class="st12" d="M398.8,134.68l0.24-11.73l23.45,0.47l-0.24,11.73l-5.86-0.12l2.66,17.65l9.06-17.41l8.36,17.77l3.37-17.53
					l-5.86-0.12l0.24-11.72l23.45,0.47l-0.24,11.73l-5.86-0.12L445,170.81l5.86,0.12l-0.24,11.73l-22.62-0.46l0.24-11.73l5.03,0.1
					l-5.63-11.84l-6.1,11.61l5.02,0.1l-0.23,11.73l-22.62-0.46l0.23-11.73l5.87,0.12l-5.16-35.3L398.8,134.68z"/>
				<path class="st8" d="M452.16,184.25l-50.03-1.01l0.3-14.85l5.58,0.11l-4.7-32.17l-6.1-0.12l0.3-14.85l26.57,0.54l-0.3,14.84
					l-5.57-0.11l1.67,11.09l8.31-15.96l7.66,16.28l2.12-11.01l-5.57-0.11l0.3-14.84l26.57,0.53l-0.3,14.85l-6.1-0.12l-5.99,31.95
					l5.58,0.11L452.16,184.25z M429.61,180.67l19.5,0.39l0.17-8.61l-6.15-0.12l7.15-38.17l5.63,0.12l0.17-8.61l-20.34-0.41
					l-0.17,8.61l6.16,0.12l-4.63,24.05l-9.05-19.25l-9.82,18.87l-3.65-24.22l6.15,0.12l0.17-8.61l-20.33-0.41l-0.17,8.61l5.62,0.11
					l5.61,38.43l-6.14-0.12l-0.17,8.61l19.5,0.39l0.17-8.61l-5.99-0.12l8.72-16.6l8.05,16.94l-5.99-0.12L429.61,180.67z
					 M428.17,168.91l2.62,0.05l-3.21-6.75l-3.47,6.61L428.17,168.91z"/>
			</g>
			<g>
				<path class="st12" d="M455.84,183.61l2.72-11.41l5.7,1.36l8.14-34.23l-5.71-1.36l2.72-11.41l39.94,9.49l-4.07,17.12l-11.41-2.71
					l1.36-5.71l-11.41-2.71l-2.71,11.41l11.41,2.71l-2.71,11.41l-11.41-2.71l-2.71,11.41l11.41,2.71l1.36-5.7l11.41,2.71
					l-4.06,17.12L455.84,183.61z"/>
				<path class="st8" d="M496.94,194.99l-42.97-10.22l3.43-14.45l5.71,1.36l7.42-31.2l-5.7-1.36l3.44-14.44l42.97,10.21l-4.79,20.15
					l-14.45-3.43l1.36-5.71l-8.38-1.99l-1.99,8.38l11.42,2.71l-3.43,14.44l-11.41-2.71l-1.99,8.37l8.37,1.99l1.36-5.7l14.44,3.43
					L496.94,194.99z M457.72,182.46l36.91,8.77l3.35-14.08l-8.38-1.99l-1.36,5.7l-14.44-3.43l3.44-14.44l11.41,2.71l1.99-8.37
					l-11.41-2.71l3.44-14.45l14.44,3.43l-1.36,5.71l8.37,1.99l3.35-14.08l-36.9-8.77l-1.99,8.38l5.71,1.36l-8.86,37.27l-5.71-1.36
					L457.72,182.46z"/>
			</g>
			<g>
				<path class="st12" d="M500.29,194.38l5.05-10.59l5.29,2.53l15.15-31.76l-5.29-2.52l5.05-10.59l28.59,13.63l4.43,12.51
					l-7.07,14.82l-4.69,1.66l1.66,4.69l-6.06,12.7l5.29,2.52l-5.05,10.59l-20.42-9.74l5.05-10.59l4.54,2.17l5.05-10.59l-10.58-5.05
					l-5.05,10.59l4.54,2.16l-5.05,10.59L500.29,194.38z M531.32,170.19l10.59,5.05l5.05-10.59l-10.59-5.05L531.32,170.19z"/>
				<path class="st8" d="M543.37,216.66l-21.93-10.46v0l-23.23-11.08l6.4-13.4l5.29,2.53l13.81-28.94l-5.29-2.53l6.39-13.4
					l30.58,14.59l4.86,13.73l-7.62,15.99l-3.83,1.35l1.36,3.83l-5.67,11.88l5.29,2.52L543.37,216.66z M524.3,204.1l17.6,8.4
					l3.71-7.77l-5.29-2.52l6.45-13.53l-1.96-5.56l5.55-1.96l6.51-13.65l-4-11.29l-26.59-12.69l-3.7,7.77l5.29,2.53l-16.5,34.58
					l-5.29-2.53l-3.71,7.77l17.6,8.4l3.71-7.77l-4.53-2.16l6.39-13.4l13.4,6.39l-6.39,13.4l-4.54-2.17L524.3,204.1z M526.54,192.17
					l4.54,2.17l3.7-7.77l-7.77-3.71l-3.71,7.77L526.54,192.17L526.54,192.17z M542.64,177.32l-13.4-6.4l6.4-13.4l13.4,6.4
					L542.64,177.32z M533.4,169.46l7.77,3.71l3.71-7.77l-7.77-3.71L533.4,169.46z"/>
			</g>
			<g>
				<path class="st12" d="M545.08,216.42l7.08-9.35l4.68,3.54l21.24-28.05l-4.67-3.54l7.08-9.35l32.73,24.79l-10.62,14.02
					l-9.35-7.08l3.54-4.67l-9.35-7.08l-7.08,9.35l9.35,7.08l-7.08,9.35l-9.35-7.08l-7.08,9.35l4.68,3.54l-7.08,9.35L545.08,216.42z"
					/>
				<path class="st8" d="M564.08,232.77l-21.18-16.05l8.96-11.84l4.68,3.54l19.36-25.56l-4.67-3.54l8.96-11.84l35.21,26.67
					l-12.51,16.51l-11.84-8.97l3.54-4.67l-6.86-5.2l-5.2,6.86l9.35,7.08l-8.97,11.83l-9.35-7.08l-5.2,6.86l4.68,3.54L564.08,232.77z
					 M547.26,216.12l16.21,12.28l5.2-6.86l-4.68-3.54l8.97-11.83l9.35,7.08l5.2-6.86l-9.35-7.08l8.97-11.84l11.84,8.97l-3.54,4.67
					l6.86,5.2l8.74-11.54l-30.24-22.91l-5.2,6.86l4.67,3.54l-23.13,30.53l-4.68-3.54L547.26,216.12z"/>
			</g>
			<g>
				<path class="st12" d="M575.33,239l8.5-8.08l4.04,4.25l25.5-24.25l-4.04-4.25l8.5-8.08l28.29,29.75l-12.75,12.12l-8.08-8.5
					l4.25-4.04l-8.08-8.5l-8.5,8.08l8.08,8.5l-8.5,8.08l-8.08-8.5l-8.5,8.08l8.08,8.5l4.25-4.04l8.08,8.5l-12.75,12.12L575.33,239z"
					/>
				<path class="st8" d="M603.57,270.95l-30.44-32.01l10.76-10.23l4.04,4.25l23.24-22.1l-4.04-4.25l10.76-10.23l30.44,32.01
					l-15.01,14.27l-10.23-10.76l4.25-4.04l-5.93-6.24l-6.24,5.93l8.08,8.5l-10.76,10.23l-8.08-8.5l-6.24,5.93l5.93,6.24l4.25-4.04
					l10.23,10.76L603.57,270.95z M577.54,239.05l26.14,27.49l10.49-9.97l-5.93-6.24l-4.25,4.04l-10.23-10.76l10.76-10.23l8.08,8.5
					l6.24-5.93l-8.08-8.5l10.76-10.23l10.23,10.76l-4.25,4.04l5.93,6.24l10.49-9.97l-26.14-27.49l-6.24,5.93l4.04,4.25l-27.76,26.4
					l-4.04-4.25L577.54,239.05z"/>
			</g>
			<g>
				<path class="st12" d="M605.72,270.97l9.95-6.21l3.1,4.98l29.86-18.62l-3.1-4.98l9.96-6.2l16.75,26.87l-3,12.93l-13.93,8.68
					l-4.85-1.12l-1.12,4.85l-11.94,7.45l3.1,4.98l-9.95,6.2l-11.97-19.19l9.96-6.21l2.66,4.27l9.95-6.21l-6.21-9.95l-9.95,6.2
					l2.66,4.27l-9.95,6.21L605.72,270.97z M644.89,267.28l6.2,9.95l9.95-6.2l-6.21-9.95L644.89,267.28z"/>
				<path class="st8" d="M630.04,312.93l-26.47-42.46l12.6-7.86l3.1,4.98l27.21-16.97l-3.1-4.98l12.6-7.85l17.92,28.74l-3.29,14.19
					l-15.03,9.37l-3.96-0.92l-0.92,3.96l-11.17,6.96l3.1,4.98L630.04,312.93z M620.72,292.08l10.32,16.55l7.3-4.55l-3.1-4.98
					l12.72-7.93l1.33-5.74l5.74,1.33l12.84-8l2.71-11.67l-15.59-25l-7.31,4.56l3.1,4.98l-32.51,20.27l-3.1-4.98l-7.31,4.56
					l10.32,16.55l7.31-4.55l-2.66-4.27l12.6-7.85l7.86,12.6l-12.6,7.86l-2.66-4.27L620.72,292.08z M629.79,284.45l1.89,3.04
					l7.31-4.55l-4.55-7.31l-7.3,4.55L629.79,284.45z M650.59,279.38l-7.86-12.6l12.6-7.86l7.86,12.6L650.59,279.38z M647.04,267.78
					l4.55,7.31l7.31-4.55l-4.55-7.31L647.04,267.78z"/>
			</g>
		</g>
	</g>
	<g>
		<path class="st9" d="M179.57,521.89c0,0,39.88,97.14,160.67,140.75l-15.99,5.48C324.25,668.12,227.71,641.48,179.57,521.89z"/>
		<path class="st9" d="M175.69,508.7c0,0,8.72,32.22,24.07,49.84C199.77,558.54,212.94,527.46,175.69,508.7z"/>
		<path class="st9" d="M151.97,481.16c0,0,5.68,20.98,15.68,32.45C167.65,513.61,176.22,493.38,151.97,481.16z"/>
		<path class="st9" d="M216.79,531.24c0,0-4.74,31.94,6.21,56.1C223,587.33,255.19,570.12,216.79,531.24z"/>
		<path class="st9" d="M241.94,558.43c0,0-2.21,36.17,12.4,62.23C254.34,620.66,288.73,598.54,241.94,558.43z"/>
		<path class="st9" d="M271.18,584.57c0,0,2.86,38.02,21.85,63.3C293.03,647.87,325.8,620.31,271.18,584.57z"/>
		<path class="st9" d="M307.32,608c0,0,12.28,39.93,38.73,62.69C346.04,670.69,374.42,634.02,307.32,608z"/>
		<path class="st9" d="M162.06,551.78c0,0,29.07,5.65,46.95,21.91C209.01,573.69,185.02,595.08,162.06,551.78z"/>
		<path class="st9" d="M150.83,513.47c0,0,21.78,9.42,32.99,25.22C183.81,538.7,161.35,551.31,150.83,513.47z"/>
		<path class="st9" d="M179.13,586.76c0,0,36.99,1.76,62.26,18.6C241.39,605.36,215.95,636.01,179.13,586.76z"/>
		<path class="st9" d="M205.5,623.1c0,0,43.26-2.86,75.08,13.34C280.58,636.43,255.45,675.38,205.5,623.1z"/>
	</g>
	<g>
		<g>
			<polygon class="st11" points="813.22,673.85 741.56,673.85 741.56,640.89 104.64,640.89 104.64,673.85 32.98,673.85 86.2,725.45 
				36.02,777.05 189.58,777.05 189.58,760.55 656.62,760.55 656.62,777.05 810.18,777.05 760.01,725.45 			"/>
			<path class="st8" d="M741.56,640.89v32.97h71.66l-53.22,51.6l50.18,51.59H656.62v-16.5H189.58v16.5H36.02l50.17-51.59
				l-53.21-51.6h71.66v-32.97H741.56 M747.8,634.65h-6.24H104.64H98.4v6.24v26.72H32.98h-15.4l11.05,10.72l48.73,47.25L31.55,772.7
				l-10.3,10.59h14.77h153.56h6.24v-6.24v-10.26h454.56v10.26v6.24h6.24h153.56h14.77l-10.3-10.59l-45.82-47.11l48.73-47.25
				l11.06-10.72h-15.4H747.8v-26.72V634.65L747.8,634.65z"/>
		</g>
		<g>
			<path class="st8" d="M159.13,730.61v-8.6h4.3v-42.99h-4.3v-8.6h23.21l6.88,6.88v20.63l-2.58,2.58l2.58,2.58v18.92h4.3v8.6h-16.33
				v-8.6h3.44v-17.2h-8.6v17.2h3.44v8.6H159.13z M172.03,696.22h8.6v-17.2h-8.6V696.22z"/>
			<path class="st8" d="M205.47,730.61l-6.88-6.88v-46.42l6.88-6.88h12.04l6.88,6.88v46.42l-6.88,6.88H205.47z M207.19,722.01h8.6
				v-42.99h-8.6V722.01z"/>
			<path class="st8" d="M238.06,730.61v-8.6h4.13v-42.99h-4.13v4.3h-8.6v-12.9h34.39v12.9h-8.6v-4.3h-4.3v42.99h4.3v8.6H238.06z"/>
			<path class="st8" d="M268.93,730.61v-8.6h4.3v-42.99h-4.3v-8.6h16.33v8.6h-3.44v17.2h8.6v-17.2h-3.44v-8.6h16.33v8.6h-4.3v42.99
				h4.3v8.6h-16.33v-8.6h3.44v-17.2h-8.6v17.2h3.44v8.6H268.93z"/>
			<path class="st8" d="M311.91,730.61v-8.6h4.3v-42.99h-4.3v-8.6h30.09v12.9h-8.6v-4.3h-8.6v17.2h12.9v8.6h-12.9v17.2h8.6v-4.3h8.6
				v12.9H311.91z"/>
			<path class="st8" d="M350.6,730.61v-8.6h4.3v-42.99h-4.3v-8.6h12.89l12.9,34.39v-25.79h-4.3v-8.6h17.19v8.6h-4.3v51.58h-8.6
				l-12.9-34.39v25.79h4.3v8.6H350.6z"/>
			<path class="st8" d="M396.13,730.61v-8.6h4.3v-42.99h-4.3v-8.6h23.21l6.88,6.88v20.63l-2.58,2.58l2.58,2.58v20.63l-6.88,6.88
				H396.13z M409.02,696.22h8.6v-17.2h-8.6V696.22z M409.02,722.01h8.6v-17.2h-8.6V722.01z"/>
			<path class="st8" d="M433.06,670.43h16.33v8.6h-3.44v42.99h8.6v-42.99h-3.44v-8.6h16.34v8.6h-4.3v44.71l-6.88,6.88h-12.04
				l-6.88-6.88v-44.71h-4.3V670.43z"/>
			<path class="st8" d="M474.28,730.61v-8.6h4.3v-42.99h-4.3v-8.6h23.21l6.88,6.88v20.63l-2.58,2.58l2.58,2.58v18.92h4.3v8.6h-16.34
				v-8.6h3.44v-17.2h-8.6v17.2h3.44v8.6H474.28z M487.18,696.22h8.6v-17.2h-8.6V696.22z"/>
			<path class="st8" d="M522.38,730.61l-6.88-6.88v-46.42l6.88-6.88h12.04l6.87,6.88v10.31h-8.6v-8.6h-8.6v42.99h8.6v-17.2h-4.3
				v-8.6h12.9v27.51l-6.87,6.88H522.38z"/>
			<path class="st8" d="M549.9,717.71h8.6v4.3h8.6v-17.2h-10.32l-6.88-6.88v-20.63l6.88-6.88h12.03l6.88,6.88v6.02h-8.6v-4.3h-8.6
				v17.2h10.32l6.88,6.87v20.63l-6.88,6.88h-12.03l-6.88-6.88V717.71z"/>
			<path class="st8" d="M591.16,730.61l-6.88-6.88v-46.42l6.88-6.88h12.04l6.88,6.88v46.42l-6.88,6.88H591.16z M592.88,722.01h8.6
				v-42.99h-8.6V722.01z"/>
			<path class="st8" d="M616.92,730.61v-8.6h4.3v-42.99h-4.3v-8.6h23.21l6.88,6.88v20.63l-2.58,2.58l2.58,2.58v18.92h4.3v8.6h-16.34
				v-8.6h3.44v-17.2h-8.6v17.2h3.44v8.6H616.92z M629.81,696.22h8.6v-17.2h-8.6V696.22z"/>
			<path class="st8" d="M659.7,730.61v-8.6h4.13v-42.99h-4.13v4.3h-8.6v-12.9h34.39v12.9h-8.6v-4.3h-4.3v42.99h4.3v8.6H659.7z"/>
		</g>
	</g>
	<g>
		<g class="st13">
			<g class="st14">
				<path class="st7" d="M792.27,369.88c-44.4-64.56-144.72-77.97-224.08-29.96c-35.7,21.6-61.06,51.96-74.14,84.69
					c-0.34-0.51-0.75-0.93-1.19-1.11c-5.28-2.17-10.79-3.36-16.57-3.45c-0.93-0.01-1.76,0.13-2.57,0.41
					c0.62-1.38,6.53-7.11,4.41-5.96c7.39-3.67-17.3,5.93-22.86,11.39c0.17-1.02,6.2-7.61,6.42-8.95c0.97-1.8-7.81,1.79-13.53,5.25
					c0.38-0.49-11.4,8.86-16.52,15.36c-2.29-3.38-3.65-4.09-4.05-7.98c-0.23-2.17-1.42-4.13,1.37-5.43c2.39-1.12,5.35-5.44,6.7-7.54
					c5.26-8.22,6.51-17.32,3.89-26.49c-2.85-9.97-9.65-17.53-18.78-23.24c-0.91-0.56-1.98-1.18-2.44-2.03
					c-4.84-8.89-8.69-18.08-9.97-28.1c-1.4-10.96-0.96-21.85,0.38-32.78c1.04-8.45,1.32-17-0.82-25.4
					c-2.28-8.93-0.24-16.96,4.99-24.46c0.54-0.79,1.16-1.54,2-2.64c-6.38-2.33-11.35,0.21-16.35,2.92
					c-0.21-0.53-0.39-0.86-0.46-1.21c-1.38-6.31-4.89-11.48-9.9-15.75c-13.17-11.22-28.96-16.39-46.4-17.65
					c-0.24-0.02-0.5,0.15-1.21,0.37c11.28,5.54,19.2,13.18,22.4,24.9c-0.01,0.19-0.02,0.37-0.03,0.55
					c-12.36-3.85-24.24-5.09-36.18-0.97c-0.03,0.25-0.06,0.5-0.08,0.75c0.64,0.41,1.26,0.87,1.93,1.23
					c3.43,1.86,5.37,4.79,6.75,8.14c1.55,3.76,0.31,7.04-2.14,10c-0.38,0.46-1.5,0.57-2.26,0.52c-6.32-0.41-12.63-0.94-18.95-1.3
					c-1.48-0.08-2.99,0.37-5.04,0.65c2.55,1.17,4.56,1.91,6.35,2.97c2.45,1.46,2.52,2.89,0.67,4.96c-2.88,3.22-6.75,5.12-10.62,7.01
					c-8.13,3.96-15.74,8.64-22.63,14.29c-3.32,2.72-6.38,5.73-9.56,8.62c-3.69-5.36-6.85-5.17-11.81-3.22
					c-6.76,2.65-11.99,7.29-14.3,14.14c-1.99,5.88-2.91,11.89-1.68,18.08c0.12,0.59,0.09,1.4-0.26,1.84
					c-1.23,1.54-2.61,2.98-3.95,4.45c-4.76,5.16-8.73,10.75-11.13,17.28c-0.3,0.82-1.31,1.74-2.19,1.97
					c-2.5,0.64-5.12,0.9-7.67,1.39c-7.9,1.53-15.56,3.67-22.04,8.45c-6.88,5.06-8.44,12.27-4.28,19.53
					c0.47,0.82,0.96,1.64,1.54,2.61c-16.41,3.43-22.85,4.9-39.34,4.84c-13.94-0.05-27.72-1.7-41.45-3.88
					c-1.97-0.31-3.53-0.95-5.07-2.11c-12.98-9.77-27.23-17.09-43.88-19.44c-3.81-0.53-7.85-1.01-11.58-0.41
					c-6,0.97-11.28,3.78-15.89,7.64c-2.39,2.01-3.44,4.56-3.27,7.35c0.4,6.4,2.82,12.2,6.94,17.34c4.53,5.66,10.57,9.68,16.85,13.39
					c14.36,8.49,29.68,14.95,46.09,18.97c6.6,1.61,13.26,3.71,19.96,4c6.65,0.29,10.71,2.56,14.07,7.73
					c6.72,10.34,16.83,17.16,28.2,22.46c14.77,6.87,20.62,10.65,36.88,12.44c22.71,2.5,45.03,1.16,66.53-6.62
					c12.19-4.4,23.12-10.75,30.87-20.82c3.11-4.05,6.08-5.78,11.69-6.09c21.85-1.23,43.6-3.67,65.17-7.27
					c1.37-0.23,2.72,1.44,3.75,2.47c5.2,5.24,10.09,8.89,15.37,14.06c1.82,1.78,2.14,4.91,0.31,6.67c-1.8,1.73-3.7,3.65-5.98,4.6
					c-8.25,3.4-25.14,7.09-31.47,13.37c-9.04,8.96-7.91,17.5-7.99,18.67c2.25-1.41,3.96-2.58,5.77-3.59
					c1.7-0.95,3.49-1.75,5.24-2.62c0.08,0.13,0.15,0.27,0.22,0.4c-0.14,0.16-0.27,0.3-0.43,0.48
					c-12.27,9.87-12.35,21.87-12.27,21.68c0,0,4.51-1.6,5.71-1.63c-0.15,0.5-0.28,1-0.43,1.5c-2.04,6.66-1.38,13.3,0.36,19.89
					c3.23,12.22,8,23.75,17.51,33.08c3.24,3.18,6.44,6.4,9.52,9.72c5.54,5.96,11.36,11.75,16.37,18.1
					c9.64,12.24,19.43,24.42,26.98,37.97c0.2,0.36,0.46,0.69,0.74,1.01c-1.95,0.09-8.65,0.09-9.11,3.25
					c-0.25,0.1,0.94,0.72,0.7,0.79c0.56,0.71,0.97,1.82,1.7,2.04c2.94,0.91,5.93,1.66,8.92,2.43c-0.54,0.24-9.76,3.92-6.4,8.86
					c-0.05,0.27,1.1,0.43,1.02,0.69c1.02,0.14,2.26,0.69,3.03,0.33c0.98-0.45,1.94-0.95,2.91-1.45c-1.76,1.77-3.21,4.29-0.89,6.72
					c0,0,0.11-0.08,0.32-0.2c0.06,0.09,0.11,0.17,0.17,0.25c0.59-0.09,1.19-0.16,1.77-0.3c7.74-1.9,15.2-1.49,22.38,2.15
					c1.37,0.69,2.97,1.09,4.52,1.34c6.66,1.04,13.4,1.01,19.86-0.64c9.08-2.32,18.02-5.19,26.97-7.95
					c4.88-1.51,9.55-3.82,14.53-4.86c18.25-3.84,38.41-0.42,57.14-0.23c14.6,0.14,28.19-5.24,42.84-7.98
					c12.97-2.43,14.85-1.68,28.02-1.32c4.83,0.13,25,1.28,29.61-0.12c24.73-7.51,34.59-16.3,36.22-18.55
					c10.17-14.02,15.29-33.06,18.64-40.13c1.48-3.14,2.97-6.25,4.43-9.38C809.69,521.17,835.58,432.83,792.27,369.88z M492.28,429.3
					c-0.09-0.08-0.65-0.6-1.62-1.35c0.62,0.22,1.24,0.45,1.86,0.67C492.44,428.85,492.36,429.08,492.28,429.3z"/>
				<path class="st8" d="M341.77,219.77c0.01,0,0.02,0,0.03,0c17.44,1.26,33.24,6.43,46.4,17.65c5.01,4.27,8.52,9.44,9.9,15.75
					c0.07,0.35,0.26,0.68,0.46,1.21c3.62-1.96,7.22-3.84,11.36-3.84c1.58,0,3.23,0.27,4.99,0.92c-0.84,1.11-1.46,1.85-2,2.64
					c-5.22,7.5-7.27,15.53-4.99,24.46c2.14,8.39,1.86,16.94,0.82,25.4c-1.34,10.93-1.78,21.82-0.38,32.78
					c1.28,10.01,5.13,19.21,9.97,28.1c0.46,0.85,1.54,1.47,2.44,2.03c9.13,5.71,15.93,13.27,18.78,23.24
					c2.63,9.17,1.37,18.28-3.89,26.49c-1.35,2.11-4.31,6.43-6.7,7.54c-2.79,1.3-1.6,3.26-1.37,5.43c0.4,3.89,1.76,4.61,4.05,7.98
					c4.99-6.33,16.3-15.37,16.53-15.37c0,0,0,0.01-0.01,0.02c4.66-2.82,11.37-5.73,13.15-5.73c0.4,0,0.55,0.15,0.38,0.48
					c-0.22,1.34-6.25,7.92-6.42,8.95c4.7-4.62,23.11-12.2,24.18-12.2c0.18,0-0.14,0.22-1.14,0.72c-0.05,0.02-0.11,0.05-0.18,0.09
					c0.06-0.03,0.12-0.06,0.18-0.09c0.09-0.04,0.16-0.06,0.2-0.06c0.71,0-4.23,4.86-4.8,6.11c0.77-0.27,1.57-0.41,2.45-0.41
					c0.04,0,0.08,0,0.12,0c5.78,0.09,11.29,1.28,16.57,3.45c0.44,0.18,0.85,0.6,1.19,1.11c13.07-32.73,38.44-63.09,74.14-84.69
					c32.1-19.42,67.64-28.8,101.51-28.8c49.86,0,96.13,20.31,122.57,58.75c43.3,62.95,17.41,151.29-57.49,200.17
					c-1.46,3.13-2.95,6.24-4.43,9.38c-3.34,7.07-8.47,26.11-18.64,40.13c-1.63,2.25-11.5,11.05-36.22,18.55
					c-1.71,0.52-5.55,0.69-9.96,0.69c-7.49,0-16.61-0.49-19.65-0.57c-5.86-0.16-9.48-0.4-12.84-0.4c-4.19,0-7.98,0.37-15.18,1.72
					c-14.47,2.7-27.89,7.98-42.29,7.98c-0.18,0-0.37,0-0.55,0c-12.06-0.12-24.72-1.58-37.08-1.58c-6.83,0-13.56,0.45-20.06,1.81
					c-4.98,1.04-9.64,3.35-14.53,4.86c-8.95,2.77-17.88,5.63-26.97,7.95c-3.64,0.93-7.36,1.35-11.12,1.35
					c-2.91,0-5.84-0.25-8.75-0.71c-1.55-0.24-3.15-0.65-4.52-1.34c-4.44-2.25-8.99-3.27-13.64-3.27c-2.87,0-5.79,0.39-8.74,1.12
					c-0.58,0.14-1.18,0.21-1.77,0.3c-0.06-0.08-0.11-0.16-0.17-0.25c-0.21,0.12-0.32,0.2-0.32,0.2c-2.31-2.43-0.87-4.95,0.89-6.72
					c-0.96,0.5-1.93,0.99-2.91,1.45c-0.18,0.08-0.39,0.12-0.61,0.12c-0.73,0-1.63-0.34-2.41-0.45c0.08-0.26-1.08-0.41-1.02-0.69
					c-3.36-4.94,5.86-8.62,6.4-8.86c-2.99-0.77-5.99-1.52-8.92-2.43c-0.73-0.22-1.14-1.34-1.7-2.04c0.24-0.07-0.95-0.69-0.7-0.79
					c0.47-3.16,7.16-3.16,9.11-3.25c-0.28-0.32-0.53-0.65-0.74-1.01c-7.55-13.56-17.34-25.74-26.98-37.97
					c-5.01-6.34-10.83-12.13-16.37-18.1c-3.08-3.31-6.28-6.54-9.52-9.72c-9.52-9.33-14.29-20.85-17.51-33.08
					c-1.74-6.59-2.4-13.23-0.36-19.89c0.15-0.5,0.29-1,0.43-1.5c-1.19,0.03-5.71,1.63-5.71,1.63c0,0,0,0,0,0
					c-0.07,0,0.1-11.89,12.28-21.68c0.16-0.18,0.29-0.32,0.43-0.48c-0.07-0.13-0.15-0.26-0.22-0.4c-1.75,0.87-3.55,1.66-5.24,2.62
					c-1.81,1.01-3.52,2.17-5.77,3.59c0.07-1.17-1.05-9.71,7.99-18.67c6.33-6.27,23.22-9.96,31.47-13.37
					c2.28-0.94,4.19-2.87,5.98-4.6c1.83-1.76,1.51-4.89-0.31-6.67c-5.29-5.17-10.17-8.82-15.37-14.06c-0.96-0.97-2.22-2.5-3.5-2.5
					c-0.09,0-0.17,0.01-0.26,0.02c-21.57,3.6-43.32,6.04-65.17,7.27c-5.61,0.32-8.58,2.05-11.69,6.09
					c-7.75,10.07-18.68,16.41-30.87,20.82c-15.14,5.47-30.69,7.76-46.5,7.76c-6.63,0-13.32-0.4-20.03-1.14
					c-16.26-1.79-22.11-5.57-36.88-12.44c-11.37-5.29-21.49-12.12-28.2-22.46c-3.36-5.17-7.42-7.45-14.07-7.73
					c-6.7-0.29-13.36-2.39-19.96-4c-16.42-4.02-31.74-10.48-46.09-18.97c-6.28-3.71-12.32-7.72-16.85-13.39
					c-4.12-5.15-6.54-10.94-6.94-17.34c-0.17-2.79,0.88-5.34,3.27-7.35c4.6-3.86,9.89-6.67,15.89-7.64c1.24-0.2,2.51-0.28,3.79-0.28
					c2.59,0,5.24,0.33,7.79,0.69c16.65,2.35,30.91,9.67,43.88,19.44c1.54,1.16,3.1,1.8,5.07,2.11c13.73,2.18,27.5,3.83,41.45,3.88
					c0.34,0,0.67,0,0.99,0c15.76,0,22.27-1.48,38.35-4.84c-0.57-0.97-1.06-1.78-1.54-2.61c-4.16-7.26-2.6-14.46,4.28-19.53
					c6.48-4.78,14.14-6.91,22.04-8.45c2.55-0.49,5.16-0.75,7.67-1.39c0.87-0.22,1.89-1.15,2.19-1.97
					c2.4-6.52,6.38-12.12,11.13-17.28c1.35-1.46,2.72-2.9,3.95-4.45c0.34-0.44,0.37-1.25,0.26-1.84c-1.23-6.18-0.31-12.2,1.68-18.08
					c2.31-6.85,7.54-11.49,14.3-14.14c1.94-0.76,3.6-1.26,5.13-1.26c2.38,0,4.43,1.2,6.68,4.47c3.18-2.88,6.24-5.89,9.56-8.62
					c6.9-5.65,14.51-10.33,22.63-14.29c3.87-1.89,7.73-3.79,10.62-7.01c1.85-2.07,1.79-3.51-0.67-4.96c-1.79-1.06-3.8-1.8-6.35-2.97
					c1.88-0.26,3.31-0.66,4.68-0.66c0.12,0,0.24,0,0.37,0.01c6.32,0.35,12.63,0.89,18.95,1.3c0.1,0.01,0.21,0.01,0.32,0.01
					c0.73,0,1.61-0.14,1.94-0.53c2.45-2.96,3.69-6.24,2.14-10c-1.38-3.35-3.32-6.28-6.75-8.14c-0.67-0.36-1.29-0.82-1.93-1.23
					c0.03-0.25,0.05-0.5,0.08-0.75c5.16-1.78,10.3-2.56,15.48-2.56c6.81,0,13.68,1.35,20.69,3.53c0.01-0.18,0.02-0.36,0.03-0.55
					c-3.2-11.72-11.12-19.36-22.4-24.9C341.28,219.93,341.54,219.77,341.77,219.77 M492.28,429.3c0.08-0.23,0.16-0.46,0.24-0.68
					c-0.62-0.22-1.24-0.44-1.86-0.67C491.63,428.7,492.19,429.22,492.28,429.3 M341.77,215.09c-0.99,0-1.73,0.28-2.17,0.45
					c-0.11,0.04-0.24,0.09-0.41,0.15c-1.83,0.57-3.12,2.2-3.26,4.11c-0.14,1.91,0.89,3.71,2.6,4.55c7.9,3.88,13.39,8.56,16.83,14.43
					c-4.6-0.94-8.93-1.4-13.09-1.4c-5.96,0-11.52,0.92-17.01,2.82c-1.71,0.59-2.93,2.12-3.13,3.92l-0.03,0.33l-0.05,0.43
					c-0.19,1.76,0.63,3.48,2.12,4.44c0.17,0.11,0.35,0.23,0.52,0.35c0.5,0.34,1.06,0.71,1.73,1.07c2.03,1.1,3.42,2.84,4.64,5.8
					c0.39,0.95,0.68,2.12-0.53,4.03c-2.4-0.16-4.79-0.33-7.17-0.5c-3.62-0.26-7.36-0.54-11.06-0.75c-0.21-0.01-0.42-0.02-0.63-0.02
					c-1.29,0-2.47,0.21-3.61,0.42c-0.52,0.1-1.09,0.2-1.7,0.28c-2.06,0.28-3.68,1.89-3.99,3.95c-0.31,2.06,0.78,4.07,2.67,4.94
					c0.87,0.4,1.67,0.75,2.43,1.08c0.64,0.28,1.21,0.52,1.74,0.77c-2.21,1.89-5.07,3.28-7.86,4.64
					c-8.96,4.37-16.66,9.23-23.55,14.88c-2.2,1.81-4.29,3.72-6.3,5.59c-1.78-1.43-4.05-2.51-6.98-2.51c-2.48,0-4.85,0.8-6.84,1.58
					c-8.51,3.34-14.39,9.22-17.02,17c-2.38,7.03-3.04,13.43-2.01,19.52c-0.68,0.78-1.41,1.58-2.18,2.4l-0.71,0.77
					c-5.54,6.01-9.4,11.92-11.79,18.06c-1.12,0.25-2.3,0.43-3.55,0.63c-1,0.16-2.04,0.32-3.1,0.52c-7.62,1.48-16.41,3.74-23.93,9.28
					c-7.84,5.77-10.38,14.21-7.03,22.59c-11.8,2.44-18.12,3.47-31.28,3.47l-0.98,0c-11.75-0.04-24.31-1.22-40.73-3.82
					c-1.24-0.2-2.07-0.54-2.99-1.23c-15.22-11.46-30.28-18.11-46.04-20.33c-2.53-0.35-5.47-0.73-8.44-0.73
					c-1.63,0-3.12,0.11-4.53,0.34c-6.42,1.04-12.53,3.96-18.15,8.67c-3.45,2.9-5.2,6.88-4.93,11.22c0.45,7.22,3.12,13.94,7.95,19.98
					c5.04,6.31,11.69,10.69,18.13,14.49c15.14,8.94,31.07,15.5,47.36,19.49c1.34,0.33,2.67,0.67,4.01,1.02
					c5.43,1.41,11.04,2.86,16.86,3.11c5.09,0.22,7.8,1.68,10.35,5.61c6.43,9.89,16.01,17.57,30.15,24.15
					c2.11,0.98,4.03,1.9,5.83,2.75c11.1,5.29,17.8,8.48,32.51,10.1c7.05,0.78,13.96,1.17,20.54,1.17c17.39,0,33.12-2.63,48.09-8.04
					c14.7-5.31,25.49-12.63,32.98-22.37c2.4-3.12,4.17-4.04,8.24-4.27c21.36-1.2,43.03-3.6,64.41-7.12
					c0.16,0.15,0.31,0.32,0.44,0.45c0.17,0.18,0.33,0.35,0.49,0.5c2.87,2.89,5.65,5.32,8.34,7.67c2.3,2.01,4.69,4.09,7.08,6.44
					c0.04,0.04,0.08,0.11,0.1,0.18l-0.11,0.11c-1.41,1.36-2.86,2.77-4.18,3.31c-2.26,0.93-5.38,1.94-8.69,3.01
					c-8.92,2.88-19.03,6.14-24.28,11.36c-6.39,6.33-9.54,13.6-9.37,21.58l0,0.24c-0.06,1.58,0.69,3.09,1.98,3.99
					c-3.45,6.74-3.73,12.54-3.18,14.09c0.61,1.72,2.16,2.93,3.95,3.1c-0.54,4.95-0.01,10.26,1.58,16.29
					c2.79,10.58,7.45,24.14,18.76,35.22c3.59,3.52,6.66,6.64,9.37,9.56c1.41,1.51,2.83,3.02,4.25,4.52
					c4.06,4.29,8.26,8.71,11.87,13.29l1.58,2c7.69,9.75,15.6,19.78,22.1,30.41c-2.69,0.85-5.17,2.46-5.91,5.57
					c-0.08,0.25-0.13,0.51-0.17,0.77c-0.16,1.17,0.05,2.84,1.76,4.36c0.04,0.06,0.08,0.14,0.13,0.21c0.56,0.91,1.6,2.6,3.73,3.29
					c-0.47,0.73-0.85,1.52-1.1,2.37c-0.66,2.23-0.33,4.56,0.92,6.64c0.41,0.83,1.14,1.67,2.41,2.29c0.63,0.46,1.36,0.76,2.15,0.86
					c0.37,1.65,1.22,3.09,2.27,4.19c0.86,0.9,2.01,1.4,3.18,1.45c0.23,0.04,0.47,0.05,0.71,0.05c0.24,0,0.48-0.02,0.72-0.05
					l0.38-0.06c0.52-0.08,1.12-0.16,1.77-0.32c2.66-0.65,5.23-0.98,7.64-0.98c4.09,0,7.86,0.9,11.53,2.76
					c1.67,0.84,3.6,1.42,5.91,1.79c3.24,0.5,6.43,0.76,9.48,0.76c4.27,0,8.41-0.5,12.28-1.49c7.84-2,15.63-4.43,23.17-6.77
					l4.01-1.24c2.03-0.63,4-1.37,5.89-2.09c2.84-1.08,5.53-2.1,8.22-2.66c5.48-1.15,11.73-1.71,19.1-1.71
					c6.34,0,12.92,0.4,19.29,0.79c5.85,0.36,11.89,0.73,17.75,0.79l0.6,0c10.09,0,19.69-2.43,28.98-4.79
					c4.62-1.17,9.4-2.38,14.17-3.27c7.36-1.38,10.71-1.64,14.32-1.64c1.87,0,3.85,0.08,6.35,0.18c1.82,0.07,3.9,0.15,6.36,0.22
					c0.8,0.02,2.02,0.07,3.52,0.13c4.25,0.17,10.67,0.44,16.26,0.44c7.44,0,9.95-0.48,11.32-0.89c24.28-7.37,35.9-16.49,38.66-20.28
					c7.72-10.66,12.49-23.56,15.97-32.98c1.21-3.28,2.26-6.12,3.1-7.9c0.59-1.25,1.17-2.49,1.76-3.72c0.71-1.49,1.42-2.99,2.12-4.48
					c40.48-26.81,68.46-66.43,76.85-108.89c6.85-34.68,0.03-69.17-19.19-97.11c-13.22-19.22-32.02-34.91-54.37-45.38
					c-21.52-10.07-46.43-15.4-72.05-15.4c-36.13,0-72.06,10.19-103.93,29.47c-33.52,20.28-59.64,49.31-74.05,82.15
					c-2.67-0.92-5.39-1.6-8.14-2.06c0.53-0.87,0.81-1.98,0.47-3.4c-0.5-2.11-2.43-3.62-4.6-3.62c-1.71,0-7.64,2.33-13.67,5.23
					c-0.01-0.01-0.01-0.02-0.02-0.03c-0.9-1.52-2.57-2.43-4.45-2.43c-3.6,0-11.65,4.09-15.19,6.18c-1.23,0.66-3.21,2.23-7.51,6
					c-1.87,1.64-4.14,3.7-6.27,5.85c-0.04-0.21-0.07-0.45-0.1-0.73c-0.05-0.48-0.12-0.92-0.2-1.31c1.48-0.95,4.01-3.13,7.55-8.66
					c5.93-9.27,7.47-19.75,4.44-30.31c-2.99-10.43-9.98-19.15-20.8-25.92l-0.22-0.14c-0.24-0.15-0.57-0.35-0.78-0.5
					c-5.29-9.78-8.24-18.09-9.26-26.11c-1.22-9.54-1.09-19.58,0.39-31.62c0.91-7.38,1.62-17.13-0.93-27.13
					c-1.82-7.12-0.42-13.87,4.29-20.62c0.29-0.43,0.64-0.87,1.07-1.43c0.25-0.32,0.52-0.67,0.82-1.06c0.9-1.18,1.19-2.72,0.77-4.15
					c-0.42-1.43-1.49-2.57-2.88-3.08c-2.18-0.8-4.4-1.2-6.6-1.2c-3.18,0-6.03,0.82-8.57,1.9c-1.98-5.19-5.37-9.85-10.12-13.9
					c-13.12-11.19-29.19-17.32-49.1-18.76C342.03,215.09,341.88,215.09,341.77,215.09L341.77,215.09z"/>
			</g>
		</g>
		<g>
			<path class="st15" d="M398.43,457.03c0,0,2.87,9.41-19.37,16.6c-22.25,7.19-25.98,10.97-28.46,23.79c0,0,8.03-8.09,12.35-6.49
				c0,0-12.32,12.12-12.03,24.23c0,0,2.3-2.43,3.93-2.07c0,0-4.46,20.33,10.45,42.64c14.91,22.31,55.16,54.16,60.94,78.59
				c0,0-9.04-0.11-8.43,4.69l9.97,3.81c0,0-9.77,4.07-4.54,9.64l8.11-3.59c0,0-8.16,4.71-3.97,9.11c0,0,6.78-4.49,14.09-2.48
				c7.31,2,20.78,7.37,30.51,4.42c5.21-1.58,23.08-11.8,54.7-15.9c14.74-1.91,31.73,2.21,53.15,0.62
				c18.37-1.36,35.09-11.07,59.65-10.06c0,0,36.15,10.01,55.36-6.03c16.85-14.06,22.56-20.39,22.56-20.39l11.44-35.5
				c0,0-46.13,35.78-131.98,24.73l7.67-15.23c0,0,33.94-4.99,40.17-15.69c6.23-10.7,10.06-35.28,0.72-41.04
				c0,0-41.21,20.71-59.77,25.24c-18.56,4.54-17.3,6.84-19.35,9.85c-2.05,3-13.4,17.98-18.49,21.41c0,0-90.54-47.53-55.47-152.6
				c0,0-7.89-7.65-19.13-7.58c0,0,1.56-4.15,3.56-6.03c0,0-16.27,8.57-20.83,12.31c-4.55,3.74-1.13-5.39,3.49-10.82
				c0,0-13.32,3.64-20.03,12.63c-6.7,8.99-6.77,10.39-6.77,10.39S430.26,462.63,398.43,457.03z"/>
			<path class="st16" d="M467.11,482.88c0,0,23.76,53.4-0.06,76.21l-13.15,10.59l23.82-8.96c0,0-1.92,39.37,15.34,52.41l22.46,0.54
				c0,0,5.18-15.41,15.19-17.92c10.01-2.52,17.07-13.82,17.07-13.82l3.06-2.47c0,0-21.43-18.54,0.41-83.5
				c19.72-58.65-28.76,20.77-28.76,20.77S487.58,484.97,467.11,482.88z"/>
			<path class="st16" d="M427.86,658.03c0,0-3.95-6.07,22.75-14.62c0,0,11.92,8.56,32.46,1.63c20.54-6.93,26.7-13.04,41.49-15.88
				c0,0,10.27,11.41,52.58,6.11c42.31-5.29,46.82-12.22,89.13-8.55c0,0,11.91-0.95,19.31-15.21c0,0-70.24,0.54-88.73-14.12
				c-18.48-14.66,132.68-29.33,132.68-29.33l-9.04,30.14l-9.45,19.55c0,0-25.46,17.11-37.38,19.55c0,0-28.35-6.11-51.35,0
				c-23,6.11-45.18,10.59-54.22,8.55c-9.04-2.03-42.31-5.29-67.78,5.7c0,0-36.15,10.59-46.01,8.15
				C444.45,657.26,438.39,651.06,427.86,658.03z"/>
			<path class="st17" d="M455.54,447.08c0,0,1.23-15.07,11.91-18.74c0,0-2.88,6.92-1.23,10.59c0,0,9.04-7.33,16.43-6.93l-4.11,8.15
				c0,0,13.55,2.03,19.72,4.89C504.43,447.9,472.8,441.79,455.54,447.08z"/>
			<g>
				<g>
					<path class="st9" d="M792.27,369.88c44.4,64.55,16.06,155.81-63.29,203.83c-79.36,48.02-179.68,34.6-224.08-29.96
						c-44.39-64.56-16.06-155.81,63.3-203.83C647.55,291.91,747.87,305.32,792.27,369.88z"/>
					<path class="st18" d="M790.46,378.31c41.11,59.78,13.23,145.27-62.27,190.95c-75.5,45.68-170.02,34.25-211.14-25.52
						c-41.11-59.78-13.23-145.27,62.27-190.95C654.82,307.11,749.34,318.53,790.46,378.31z"/>
				</g>
				<g>
					<path class="st9" d="M786.74,367.68c42.43,61.7,13.66,149.94-64.27,197.1c-77.93,47.15-175.5,35.35-217.94-26.34
						c-42.43-61.7-13.65-149.94,64.28-197.09C646.74,294.19,744.31,305.98,786.74,367.68z"/>
					<path class="st19" d="M784.72,368.91c41.82,60.81,13.47,147.79-63.35,194.27c-76.81,46.47-172.99,34.85-214.8-25.96
						c-41.82-60.81-13.47-147.79,63.35-194.27C646.72,296.47,742.9,308.09,784.72,368.91z"/>
					<path class="st10" d="M779.5,369.64c40.45,58.83,12.42,143.32-62.62,188.74c-75.04,45.4-168.67,34.51-209.13-24.31
						c-40.45-58.83-12.42-143.33,62.62-188.73C645.41,299.93,739.04,310.81,779.5,369.64z"/>
				</g>
				<g>
					<path class="st18" d="M757.67,373.25c34.21,49.74,9.12,122.02-56.04,161.45c-65.15,39.43-145.71,31.06-179.92-18.68
						c-34.21-49.74-9.12-122.03,56.04-161.45C642.91,315.14,723.46,323.5,757.67,373.25z"/>
					<path class="st19" d="M760.81,376.1c34.22,49.75,9.13,122.03-56.03,161.45c-65.16,39.43-145.71,31.06-179.92-18.68
						c-34.21-49.74-9.12-122.03,56.04-161.46C646.05,317.98,726.61,326.35,760.81,376.1z"/>
					<path class="st10" d="M758.72,371.13c32.53,51.72,9.24,123.53-56.72,163.43c-65.95,39.91-143,28.09-182.12-18.91
						c-39.56-47.54-11.89-126.89,54.07-166.79C639.9,308.95,724.09,316.05,758.72,371.13z"/>
				</g>
				<g>
					<path class="st18" d="M736.8,379.37c28.7,41.73,7.66,102.37-47.01,135.45c-54.67,33.07-122.25,26.06-150.95-15.68
						c-28.7-41.73-7.65-102.37,47.02-135.45C640.51,330.62,708.1,337.64,736.8,379.37z"/>
					<path class="st19" d="M739.43,381.76c28.71,41.73,7.66,102.37-47.01,135.45c-54.66,33.07-122.24,26.06-150.94-15.67
						c-28.7-41.73-7.66-102.37,47.01-135.45C643.15,333.01,710.73,340.03,739.43,381.76z"/>
					<path class="st10" d="M733.85,379.88c27.95,40.64,7.45,99.69-45.78,131.9c-53.23,32.2-119.04,25.37-146.98-15.27
						c-27.95-40.64-7.46-99.69,45.78-131.9C640.1,332.41,705.9,339.25,733.85,379.88z"/>
				</g>
				<g>
					<path class="st9" d="M555.05,433.13c1.08-2.87,2.15-5.73,3.24-8.6c0.46-1.2,0.61-1.29,1.92-1.15c4.44,0.49,9.04,0.36,13.7-0.86
						c5.78-1.51,10.73-4.4,14.35-9.05c3.43-4.4,4.71-8.89,4.47-13.5c-0.3-5.61-2.99-10-7.05-13.69c-0.62-0.57-1.25-1.14-1.96-1.64
						c-0.52-0.37-0.48-0.69,0.05-1.19c2.03-1.89,4.03-3.8,6.06-5.7c3.24-3.03,6.49-6.04,9.7-9.07c3.29-3.11,6.55-6.25,9.81-9.39
						c0.48-0.46,0.87-0.49,1.26-0.18c0.48,0.39,0.93,0.8,1.4,1.2c1.86,1.62,4.11,2.78,6.84,3.31c3.56,0.68,7.16-0.22,10.77-1.88
						c4.14-1.89,8.24-3.91,12.46-5.54c4.62-1.78,9.35-3.05,14.1-2.93c2.6,0.06,4.87,0.71,6.87,1.82c0.59,0.33,1.14,0.44,1.97,0.2
						c3.64-1.02,7-0.85,10.19,0.06c3.91,1.12,7.01,3.13,9.73,5.53c2.3,2.02,4.33,4.27,6.57,6.34c2.52,2.33,5.54,4.07,9.92,3.62
						c1.74-0.18,3.54-0.65,5.28-1.16c1.47-0.42,2.9-1.05,4.34-1.63c0.64-0.26,0.88-0.15,1.01,0.36c0.9,3.55,1.85,7.09,2.78,10.63
						c1.12,4.29,2.25,8.58,3.36,12.88c0.3,1.16,0.55,2.35,0.88,3.5c0.16,0.58-0.08,0.86-0.77,1.14c-2.11,0.87-4.25,1.71-6.28,2.73
						c-3.93,1.97-7.57,4.33-10.49,7.46c-1.49,1.61-3.02,3.23-4.21,4.96c-1.69,2.48-2.7,5.09-3.32,7.77
						c-0.74,3.22-0.28,6.12,1.09,8.69c1.72,3.22,4.61,5.49,8.53,6.83c3.11,1.07,6.41,1.73,9.93,1.98c0.74,0.06,0.81,0.39,0.58,0.98
						c-2.07,5.36-3.99,10.74-6.23,16.08c-1.49,3.56-3.37,7.07-5.21,10.58c-0.95,1.83-2.08,3.62-3.31,5.36
						c-2.49,3.51-4.93,7.05-7.72,10.42c-3.46,4.16-7.37,8.08-11.99,11.42c-3.09,2.23-6.18,4.5-9.44,6.48
						c-4.17,2.53-8.61,4.6-13.18,6.31c-3.28,1.22-6.57,2.47-9.89,3.46c-5.21,1.56-10.46,2.92-15.71,4.35
						c-4.23,1.15-8.46,2.19-12.65,3.47c-2.75,0.85-5.42,2.11-8.14,3.11c-2.54,0.93-4.68,2.51-6.9,3.93
						c-0.65,0.42-0.97,0.37-1.22-0.12c-1.37-2.65-3.41-4.86-5.85-6.72c-2.21-1.68-4.61-3.19-7.04-4.64
						c-3.01-1.79-6.18-3.4-9.23-5.16c-3.85-2.22-7.74-4.41-11.42-6.81c-2.21-1.43-4.09-3.18-6.04-4.87
						c-1.43-1.24-2.89-2.5-4.01-3.97c-1.79-2.39-3.41-4.9-4.93-7.46c-2.27-3.85-3.45-8.17-4.08-12.65
						c-0.41-2.94-0.54-5.99-0.42-9.05c0.14-3.75,0.33-7.55,1.09-11.34c1.13-5.67,2.78-11.35,4.21-17.01
						C554.87,433.13,554.96,433.13,555.05,433.13z M690.36,416.69c0.09-0.01,0.18-0.02,0.27-0.03c0.25-0.63,0.52-1.26,0.74-1.89
						c0.07-0.19-0.02-0.38-0.03-0.58c-0.24,0.06-0.49,0.07-0.68,0.18c-1.64,1-3.28,2-4.89,3.02c-5.58,3.52-11.17,7.05-16.74,10.57
						c-3.74,2.37-7.48,4.73-11.21,7.1c-3.42,2.17-6.84,4.36-10.27,6.53c-4.67,2.96-9.36,5.91-14.03,8.87
						c-2.96,1.87-5.92,3.75-8.88,5.62c-2,1.25-4.03,2.47-6.02,3.73c-3.33,2.1-6.65,4.23-9.98,6.34c-1.97,1.24-3.96,2.45-5.92,3.69
						c-3.2,2.04-6.37,4.13-9.58,6.15c-4.56,2.87-9.15,5.69-13.71,8.56c-3.84,2.41-7.64,4.87-11.48,7.28
						c-0.81,0.51-0.96,0.86-0.31,1.33c1.74,1.28,3.32,2.74,5.2,3.87c5.27,3.18,10.66,6.22,16.01,9.31c2.52,1.46,5.21,2.73,7.52,4.38
						c2.75,1.96,5.2,4.22,7.71,6.41c0.65,0.57,1.23,0.53,2.18,0.13c3.46-1.48,6.9-3.09,10.44-4.27c4.06-1.36,8.21-2.33,12.32-3.45
						c3.94-1.08,7.89-2.07,11.83-3.21c4.17-1.21,8.36-2.42,12.47-3.89c4.22-1.51,8.33-3.33,12.34-5.48
						c5.01-2.67,9.63-5.78,13.86-9.36c4.31-3.64,8.03-7.66,11.41-11.93c4.24-5.35,7.57-10.96,10.6-16.68
						c3.09-5.85,5.36-11.82,7.35-17.83c0.23-0.69,0-0.92-0.67-1.03c-2.93-0.46-5.63-1.31-8.25-2.32c-3.78-1.46-6.5-3.85-8.37-6.91
						c-1.42-2.32-2.34-4.92-2.01-7.92C689.83,420.9,690.1,418.79,690.36,416.69z M558.54,435.14c0,0-0.01,0-0.01,0
						c-0.06,0.18-0.12,0.36-0.18,0.55c-1.78,5.12-3.1,10.24-3.74,15.36c-0.03,0.26,0.03,0.61,0.24,0.74
						c0.12,0.08,0.61-0.11,0.86-0.27c2.61-1.61,5.2-3.23,7.78-4.87c4.67-2.96,9.33-5.94,13.99-8.9c3.37-2.13,6.75-4.23,10.12-6.36
						c4.43-2.8,8.84-5.61,13.27-8.4c4.71-2.97,9.45-5.9,14.16-8.86c5.84-3.67,11.66-7.37,17.5-11.03c3.31-2.08,6.66-4.09,9.96-6.16
						c3.19-2,6.33-4.06,9.52-6.06c3.49-2.2,7.03-4.35,10.52-6.55c4.33-2.73,8.63-5.52,12.97-8.26c3.47-2.19,6.96-4.33,10.43-6.49
						c1.07-0.67,1.13-0.87,0.43-1.57c-0.47-0.47-1.04-0.87-1.5-1.35c-2.79-2.92-5.95-5.47-9.95-7.23
						c-3.52-1.54-7.24-2.09-11.58,0.32c-0.89,0.5-1.36,0.3-1.93-0.22c-0.89-0.81-1.85-1.65-3.02-2.14
						c-1.99-0.83-4.38-0.67-6.79-0.27c-4.7,0.79-9.21,2.49-13.66,4.41c-3.56,1.53-7.04,3.25-10.62,4.7c-2.78,1.13-5.6,1.46-8.39,1.3
						c-3.19-0.19-5.64-1.4-8.01-2.79c-1.41-0.82-1.5-0.81-2.92,0.56c-2.16,2.1-4.32,4.21-6.51,6.28
						c-3.74,3.53-7.52,7.04-11.27,10.56c-1.31,1.23-1.29,1.22-0.23,2.26c2.37,2.3,4.2,4.92,5.42,7.93
						c1.57,3.88,2.04,8.02,1.12,12.51c-0.98,4.81-3.49,9.23-7.6,13.14c-3.87,3.68-8.48,6.25-13.79,7.72
						c-4.3,1.19-8.49,1.7-12.65,1.54c-0.95-0.03-1.36,0.31-1.62,1.09C560.11,430.6,559.32,432.87,558.54,435.14z M606.76,444.54
						c0.04-0.21,0.04-0.33,0.09-0.44c0.89-2.08-0.8-3.6-3.24-2.84c-0.75,0.24-1.52,0.6-2.21,1.01c-1.49,0.9-2.91,1.89-4.39,2.8
						c-0.73,0.45-0.76,0.82-0.36,1.29c0.37,0.44,0.68,0.91,1.02,1.37c1.39,1.88,2.78,3.75,4.17,5.63c0.29,0.38,0.66,0.65,1.27,0.25
						c2.1-1.36,4.25-2.67,6.24-4.14c1.22-0.9,1.49-2.16,1.18-3.26c-0.34-1.17-1.31-1.77-2.86-1.67
						C607.38,444.55,607.09,444.54,606.76,444.54z M655.92,414.23c0.48-1.29,0.05-2.48-1.21-3.25c-1.24-0.75-2.69-0.59-4.15,0.25
						c-1.76,1-3.49,2.07-5.19,3.18c-0.24,0.15-0.39,0.75-0.27,0.97c0.38,0.72,0.92,1.36,1.4,2.04c1.21,1.7,2.39,3.4,3.63,5.08
						c0.51,0.7,1.17,0.64,2.15,0.02c0.88-0.56,0.74-1.02,0.28-1.51c-0.34-0.36-0.57-0.78-0.9-1.15c-0.85-0.96-0.61-1.55,0.96-2.09
						c0.31-0.11,0.71-0.1,0.99-0.02c0.79,0.24,1.65,0.45,2.3,0.86c1.13,0.71,2.18,0.26,3.34-0.49c0.65-0.43,0.65-0.69,0.07-0.91
						c-0.83-0.31-1.66-0.61-2.48-0.92C655.36,415.74,655.36,415.73,655.92,414.23z M685.42,401.21c-1.26-0.42-2.39-0.89-3.6-1.17
						c-0.97-0.23-1.26-0.54-0.66-1.5c0.97-1.54,0.19-2.66-0.77-3.56c-0.86-0.82-2.31-0.9-3.63-0.22c-2.1,1.07-4.09,2.34-6.08,3.57
						c-0.18,0.11-0.23,0.68-0.1,0.92c0.31,0.57,0.75,1.07,1.14,1.6c1.39,1.88,2.79,3.75,4.16,5.64c0.53,0.73,1.13,0.2,1.75-0.18
						c0.63-0.38,0.99-0.72,0.52-1.26c-0.4-0.45-0.67-0.99-1.02-1.48c-0.67-0.93-0.65-1.06,0.64-1.73c0.36-0.19,0.91-0.28,1.25-0.19
						c0.78,0.2,1.51,0.5,2.22,0.8C682.94,403.18,683.62,403.02,685.42,401.21z M636.73,420.73c-0.42,0.11-1.33,0.2-2.05,0.59
						c-1.89,1.02-3.68,2.17-5.51,3.27c-0.6,0.36-0.54,0.71-0.27,1.09c1.43,1.99,2.84,3.99,4.27,5.98c0.33,0.46,0.63,0.96,1.05,1.35
						c0.69,0.65,1.51-0.05,2.19-0.43c0.75-0.42,0.24-0.81,0.02-1.13c-0.4-0.59-0.89-1.13-1.26-1.73c-0.13-0.21-0.15-0.58-0.01-0.8
						c0.52-0.82,1.65-1.19,2.51-0.86c0.8,0.3,1.59,0.6,2.35,0.94c1.31,0.6,1.26,0.46,2.92-0.62c0.61-0.4,0.59-0.73,0.02-0.94
						c-0.92-0.34-1.79-0.74-2.75-1c-0.92-0.26-1.13-0.64-0.61-1.57C640.76,422.77,639.05,420.96,636.73,420.73z M593.95,447.97
						c-0.95,0.3-1.98,0.48-2.84,0.95c-1.72,0.93-3.35,2.02-5.02,3.04c-0.59,0.36-0.58,0.69-0.31,1.09c0.83,1.16,1.6,2.35,2.45,3.49
						c0.93,1.26,1.92,2.48,2.89,3.72c0.62,0.8,1.46,0.11,2.13-0.25c0.77-0.41,0.33-0.85,0.08-1.22c-0.32-0.47-0.62-0.95-1.01-1.38
						c-0.74-0.85-0.69-1,0.49-1.78c0.64-0.41,1.18-0.5,1.75-0.2c0.5,0.27,1.09,0.46,1.62,0.72c1.16,0.55,2.34,0.82,3.64-0.46
						c0.18-0.19,0.52-0.41,0.51-0.54c-0.02-0.18-0.29-0.33-0.51-0.41c-1-0.37-1.99-0.78-3.05-1.06c-0.86-0.23-0.78-0.65-0.41-1.36
						C597.45,450.29,596.3,448.34,593.95,447.97z M587.14,462.41c1.13-3.47-1.39-6.34-4.63-6.61c-3.39-0.28-7.01,1.97-8.04,4.84
						c-1.29,3.56,1.34,6.5,4.85,6.75C582.66,467.62,586.03,465.33,587.14,462.41z M671.74,408.7c1.09-3.18-1.24-6.37-4.8-6.68
						c-3.08-0.28-7.05,2.38-7.88,5.02c-0.93,2.96,0.8,6.22,4.84,6.53C667.28,413.83,670.73,411.68,671.74,408.7z M622.46,441.29
						c0.12-0.09,0.24-0.19,0.35-0.29c-0.38-0.33-0.68-0.74-1.15-0.94c-0.24-0.1-0.82,0.09-1.15,0.29c-1.24,0.74-2.42,1.55-3.65,2.29
						c-1.84,1.11-1.82,1.07-2.95-0.13c-0.45-0.48-0.41-0.77,0.33-1.21c1.31-0.77,2.55-1.64,3.86-2.4c0.85-0.49,0.83-0.88,0.44-1.42
						c-0.39-0.54-0.81-0.7-1.6-0.16c-1,0.69-2.02,1.36-3.05,2c-1.55,0.95-1.54,0.93-2.44-0.14c-0.4-0.47-0.33-0.82,0.4-1.26
						c1.48-0.9,2.91-1.88,4.38-2.81c0.57-0.37,0.9-0.69,0.47-1.2c-0.37-0.44-0.62-1.04-1.57-0.43c-2.34,1.48-4.67,2.96-6.97,4.49
						c-0.24,0.16-0.43,0.78-0.29,0.98c1.3,1.9,2.64,3.77,4.02,5.62c0.44,0.59,0.94,1.17,1.54,1.64c0.24,0.18,0.93,0.23,1.21,0.05
						c2.41-1.43,4.78-2.93,7.14-4.42C622.03,441.68,622.24,441.47,622.46,441.29z M633.17,434.57c-0.18-0.16-0.33-0.26-0.43-0.4
						c-0.78-1.12-0.94-1.11-2.36-0.12c-1.42,0.98-2.88,1.91-4.33,2.86c-0.54,0.36-0.99,0.26-1.07-0.15
						c-0.13-0.69-1.52-0.91-0.56-1.99c0.04-0.04,0.13-0.06,0.19-0.1c1.31-0.82,2.61-1.66,3.94-2.46c0.66-0.4,0.91-0.73,0.46-1.25
						c-0.39-0.44-0.62-0.88-1.53-0.26c-1.21,0.83-2.49,1.57-3.72,2.38c-1.17,0.78-1.33-0.03-1.75-0.49
						c-0.48-0.52-0.32-0.95,0.45-1.43c1.42-0.87,2.78-1.81,4.2-2.68c0.82-0.5,0.65-0.88,0.34-1.37c-0.32-0.51-0.73-0.69-1.42-0.25
						c-2.22,1.39-4.42,2.81-6.63,4.21c-0.79,0.49-0.79,0.97-0.41,1.48c1.64,2.26,3.25,4.53,4.93,6.77c0.71,0.94,0.96,0.88,2.27,0.01
						c0.79-0.53,1.66-0.97,2.47-1.49C629.81,436.8,631.39,435.74,633.17,434.57z M690.22,388.25c-0.31-0.53-0.47-1.03-0.84-1.36
						c-0.13-0.12-0.81,0.09-1.14,0.3c-2.24,1.42-4.45,2.88-6.68,4.31c-1.04,0.66-1.08,0.79-0.47,1.48c0.43,0.49,0.9,0.52,1.59,0.02
						c0.34-0.26,0.76-0.44,1.13-0.69c0.72-0.49,1.13-0.4,1.5,0.16c0.8,1.21,1.66,2.39,2.5,3.57c0.45,0.63,0.91,1.25,1.41,1.84
						c0.48,0.57,1.21,0.49,2.22-0.2c0.78-0.52,0.39-0.84,0.08-1.27c-1.26-1.75-2.47-3.54-3.7-5.32c-0.65-0.95-0.63-0.95,0.66-1.69
						C689.03,389.06,689.56,388.68,690.22,388.25z M566.8,464.24c-0.59,0.36-1.21,0.64-1.66,1.05c-0.25,0.22-0.4,0.78-0.27,0.98
						c1.67,2.4,3.42,4.75,5.11,7.13c0.45,0.63,0.97,0.67,1.79,0.14c1.68-1.07,3.37-2.12,5.08-3.14c0.66-0.39,0.81-0.73,0.46-1.2
						c-0.34-0.46-0.57-1.06-1.54-0.48c-0.38,0.23-0.71,0.52-1.08,0.75c-0.92,0.54-1.83,1.28-2.77,1.49
						c-0.4,0.09-0.92-0.88-1.31-1.42c-1.15-1.62-2.26-3.26-3.4-4.89C567.13,464.53,566.98,464.42,566.8,464.24z M657.66,408.22
						c0.14-0.41,0.24-0.6,0.26-0.77c0.03-0.28,0-0.56,0-0.83c-0.3,0.09-0.62,0.16-0.9,0.28c-1.25,0.54-1.21,1.42-1.24,2.25
						c-0.01,0.24,0.21,0.64,0.37,0.63c0.32-0.02,0.8-0.23,0.98-0.46C657.44,408.92,657.56,408.44,657.66,408.22z"/>
					<path class="st9" d="M635.85,477.31c-0.73-0.23-1.66-0.42-2.47-0.79c-2.12-0.97-1.84-4.19,0.45-5.61
						c0.51-0.32,1.06-0.59,1.59-0.89c-0.24-0.38-0.53-0.73-0.7-1.14c-0.39-0.99-0.13-2.06,0.88-2.91c3.07-2.58,7.63-2.16,8.69,0.44
						c0.53,1.29-0.08,2.64-1.71,3.66c-0.61,0.38-0.8,0.65-0.33,1.07c1.02,0.91,1.14,2.1,0.28,3.43c-0.93,1.45-2.33,2.4-4.17,2.63
						C637.59,477.3,636.83,477.27,635.85,477.31z M638.25,471.32c-1.61-0.11-2.84,0.59-3.25,1.83c-0.38,1.17,0.48,2.13,2.03,2.24
						c1.36,0.09,2.75-0.77,3.11-1.93C640.49,472.31,639.69,471.41,638.25,471.32z M640.17,466.17c-1.48-0.09-2.47,0.47-2.88,1.62
						c-0.35,0.98,0.41,1.69,1.93,1.8c1.08,0.08,2.22-0.62,2.55-1.56C642.12,467.03,641.46,466.26,640.17,466.17z"/>
					<path class="st9" d="M656.04,471.73c-0.97,2.3-2.01,4.36-4.35,5.77c-2.62,1.58-7.31,0.86-7.34-1.86
						c-0.01-0.86,0.1-0.97,1.06-0.96c0.99,0,1.73,0.14,1.95,1.1c0.21,0.87,1.87,1.03,2.8,0.3c0.78-0.62,1.39-1.4,2.04-2.13
						c0.13-0.15,0.09-0.39,0.14-0.58c-0.26,0.01-0.56-0.04-0.77,0.06c-1.91,0.94-3.31,0.52-4.7-0.28c-2.3-1.33-0.78-5.89,2.55-7.22
						c3.77-1.51,7.16,0.04,6.97,3.37C656.34,470.17,656.15,471.05,656.04,471.73z M653.48,469.82c0.43-1.31-0.23-2.4-1.51-2.48
						c-1.31-0.08-2.6,0.88-3.06,2.3c-0.45,1.42,0.12,2.34,1.51,2.42C651.84,472.13,653.02,471.27,653.48,469.82z"/>
					<path class="st9" d="M660.96,471.38c0.92-0.14,1.88-0.4,2.78-0.42c3.82-0.06,4.29,3.3,2.8,5.57c-2.37,3.62-7.1,3.54-9.04,1.67
						c-0.61-0.59-0.93-1.66-0.79-2.56c0.37-2.32,0.94-4.68,2.91-6.8c2.24-2.4,5.96-3.13,8.08-1.45c0.6,0.48,0.82,1.32,1.07,2.06
						c0.15,0.44-0.17,0.83-0.87,0.79c-0.94-0.05-1.87,0.03-2.05-1.08c-0.15-1.01-1.53-1.18-2.79-0.54
						C662.01,469.13,660.99,470.51,660.96,471.38z M659.75,474.8c-0.51,1.41,0.05,2.43,1.42,2.59c1.19,0.13,2.72-0.9,3.14-2.12
						c0.45-1.28-0.18-2.44-1.4-2.58C661.48,472.54,660.28,473.34,659.75,474.8z"/>
					<path class="st9" d="M630.08,469.99c-0.61,1.78-1.24,3.56-1.81,5.35c-0.23,0.72-0.63,1-1.39,0.9
						c-0.27-0.04-0.54-0.07-0.81-0.07c-0.76-0.01-0.94-0.31-0.67-0.98c0.75-1.96,1.44-3.92,2.14-5.88c0.45-1.25,0.37-1.37-0.99-1.49
						c-0.34-0.03-0.68-0.06-1.02-0.07c-0.64-0.02-1.13-0.09-0.88-0.86c0.23-0.68,0.43-1.12,1.44-1.13c1.41-0.03,2.78-0.25,3.77-1.67
						c0.52-0.75,1.39-0.36,2.02-0.26c0.19,0.03,0.29,0.61,0.19,0.93c-0.55,1.75-1.17,3.51-1.77,5.26
						C630.23,470,630.15,469.99,630.08,469.99z"/>
					<path class="st9" d="M625.53,487.07c0.39-1.15,0.8-2.3,1.16-3.45c0.2-0.63,0.51-0.92,1.29-0.84c1.92,0.19,3.85,0.33,5.78,0.46
						c0.72,0.04,0.71,0.42,0.56,0.93c-0.15,0.53-0.48,0.75-1.1,0.69c-1.08-0.11-2.16-0.17-3.25-0.27c-0.76-0.06-1.41-0.07-1.75,0.87
						c-0.35,1,0.29,1.09,1.11,1.14c0.86,0.04,1.7,0.11,2.55,0.17c0.5,0.03,0.95,0.1,0.72,0.73c-0.21,0.57-0.6,0.68-1.16,0.63
						c-1.02-0.09-2.03-0.15-3.04-0.24c-1-0.09-1.22,0.49-1.44,1.15c-0.23,0.66-0.38,1.21,0.65,1.25c1.16,0.04,2.3,0.18,3.45,0.26
						c0.62,0.05,1.02,0.2,0.78,0.87c-0.23,0.66-0.68,0.66-1.23,0.62c-1.92-0.17-3.84-0.33-5.78-0.46c-0.77-0.05-0.93-0.35-0.71-0.99
						c0.43-1.18,0.82-2.36,1.22-3.54C625.4,487.06,625.46,487.07,625.53,487.07z"/>
					<path class="st9" d="M643.75,489.86c0.27-0.26,0.59-0.5,0.81-0.79c0.91-1.19,1.79-2.38,2.66-3.58c0.6-0.83,1.67-1.22,2.44-0.78
						c0.14,0.08,0.11,0.53-0.03,0.73c-1.11,1.46-2.28,2.9-3.41,4.36c-0.6,0.77-1.15,1.56-1.72,2.34c-0.42,0.6-0.87,1.07-1.74,0.97
						c-0.88-0.1-1.6-0.21-1.59-1.19c0.02-2.25-0.07-4.48-0.08-6.73c0-0.41-0.25-1.06,0.68-1.14c0.73-0.06,1.58-0.08,1.53,0.87
						c-0.06,1.16-0.08,2.32-0.07,3.47c0,0.49,0.11,0.95,0.17,1.43C643.52,489.83,643.64,489.85,643.75,489.86z"/>
					<path class="st9" d="M651.06,450.07c0.75-0.07,1.01,0.26,0.95,0.92c-0.07,0.81-0.06,1.61-0.03,2.4c0,0.23,0.22,0.41,0.33,0.61
						c0.26-0.17,0.6-0.3,0.78-0.51c0.6-0.73,1.19-1.47,1.7-2.24c0.5-0.76,1.15-0.84,1.82-0.67c0.19,0.04,0.36,0.5,0.25,0.66
						c-1.27,1.72-2.58,3.43-3.96,5.11c-0.25,0.31-0.94,0.58-1.35,0.57c-0.64,0-1.4-0.01-1.43-0.83c-0.05-1.73-0.13-3.46-0.25-5.19
						C649.82,450.07,650.25,449.9,651.06,450.07z"/>
					<path class="st9" d="M657.19,455.53c0.82-0.02,1.08,0.27,0.81,1c-0.26,0.72-0.66,0.92-1.42,0.84c-0.78-0.08-1.1-0.31-0.81-1.09
						C656.04,455.51,656.53,455.38,657.19,455.53z"/>
					<path class="st9" d="M648.35,493.58c-0.75,0.02-0.91-0.33-0.69-0.97c0.22-0.68,0.63-0.82,1.35-0.77
						c0.79,0.06,1.01,0.34,0.77,1.03C649.53,493.6,649.02,493.67,648.35,493.58z"/>
					<path class="st9" d="M635.15,490.72c0.72-0.03,1.06,0.16,0.81,0.89c-0.26,0.76-0.72,0.83-1.45,0.8
						c-0.85-0.03-0.82-0.42-0.62-1.01C634.09,490.76,634.5,490.54,635.15,490.72z"/>
					<path class="st9" d="M635.33,376.06c2.35,0.31,3.73,1.37,3.8,3.03c0.03,0.75-0.28,1.01-1.16,0.99
						c-0.9-0.02-1.54-0.13-1.65-1.09c-0.12-1.08-2.15-1.48-3.37-0.76c-0.39,0.23-0.82,0.72-0.87,1.06
						c-0.05,0.31,0.29,0.72,0.62,0.87c1.14,0.54,2.4,0.93,3.52,1.49c1.19,0.58,1.92,1.45,1.45,2.92c-0.48,1.51-1.69,2.37-3.29,2.93
						c-2.33,0.8-6.62,0.37-7.06-2.36c-0.04-0.26-0.08-0.52-0.05-0.78c0.06-0.6,0.33-0.88,1.13-0.81c0.9,0.09,1.63,0.15,1.51,1.19
						c-0.03,0.31,0.45,0.69,0.83,0.79c0.78,0.2,1.62,0.36,2.48,0.28c0.5-0.04,1.23-0.49,1.56-0.9c0.46-0.57,0.26-1.16-0.37-1.42
						c-0.98-0.41-1.99-0.76-3.01-1.11c-2.03-0.69-2.59-2.19-1.51-4.06c0.59-1,1.58-1.58,2.7-1.88
						C633.5,376.22,634.42,376.19,635.33,376.06z"/>
					<path class="st9" d="M644.84,388.79c-1.57-0.21-1.49-0.22-1.46-1.58c0.06-2.67,0.03-5.33,0.03-8c0-0.12-0.06-0.23-0.03-0.35
						c0.13-0.52,0.27-1.04,0.41-1.56c0.67,0.03,1.38-0.01,1.99,0.12c0.23,0.05,0.36,0.47,0.37,0.76c0.01,1.89-0.03,3.79-0.01,5.68
						c0,0.32,0.21,0.59,0.33,0.89c0.28-0.25,0.61-0.47,0.82-0.75c1.22-1.64,2.4-3.29,3.62-4.93c0.84-1.13,1.95-1.5,3.07-1
						c0.15,0.06,0.18,0.47,0.06,0.63c-2.38,3.19-4.79,6.37-7.2,9.55C646.25,389.06,645.54,388.89,644.84,388.79z"/>
					<path class="st9" d="M605.35,379.56c0.53-1.54,1.05-3.09,1.57-4.63c0.21-0.63,0.55-0.9,1.33-0.82c2.11,0.23,4.24,0.4,6.38,0.55
						c0.8,0.06,1.12,0.31,0.86,1.06c-0.27,0.8-0.8,0.91-1.55,0.82c-1.16-0.14-2.37-0.19-3.53-0.33c-0.85-0.11-1.38,0.13-1.59,0.93
						c-0.07,0.28-0.17,0.55-0.28,0.82c-0.26,0.7,0.05,1,0.81,1.04c0.99,0.05,1.96,0.17,2.95,0.21c0.84,0.04,0.92,0.43,0.71,1.09
						c-0.23,0.72-0.69,0.85-1.38,0.77c-1.04-0.11-2.09-0.18-3.13-0.29c-0.73-0.08-1.16,0.19-1.38,0.83
						c-0.33,0.94-0.71,1.87-1.01,2.81c-0.23,0.71-0.65,0.88-1.35,0.74c-0.66-0.13-1.66,0.12-1.26-1c0.56-1.54,1.06-3.09,1.59-4.63
						C605.18,379.55,605.26,379.56,605.35,379.56z"/>
					<path class="st9" d="M618.87,381.69c0.42-1.24,0.83-2.48,1.28-3.72c0.21-0.61,0.02-0.91-0.67-0.96
						c-0.54-0.03-1.06-0.16-1.6-0.18c-0.78-0.02-1.18-0.18-0.86-1.01c0.3-0.77,0.73-0.93,1.52-0.85c2.56,0.25,5.13,0.44,7.69,0.67
						c1.15,0.1,1.31,0.31,0.8,1.26c-0.13,0.26-0.69,0.58-1.02,0.61c-0.65,0.05-1.29-0.07-1.93-0.13c-0.77-0.09-1.18,0.21-1.42,0.9
						c-0.84,2.39-1.76,4.76-2.58,7.15c-0.28,0.79-0.62,1.12-1.59,1.02c-0.93-0.09-1.39-0.25-0.98-1.24c0.5-1.16,0.83-2.35,1.23-3.53
						C618.78,381.68,618.83,381.68,618.87,381.69z"/>
					<path class="st9" d="M648.88,387.94c0.45-1.21,0.46-1.21,1.85-1.09c1.07,0.1,1.09,0.18,0.63,1.5c-0.22,0.64-0.5,1.01-1.36,0.91
						C648.46,389.07,648.45,389.11,648.88,387.94z"/>
					<path class="st9" d="M623.51,386.85c-1.39-0.17-1.38-0.23-0.92-1.55c0.4-1.16,1.18-0.69,1.85-0.69c1.28,0,0.8,0.75,0.59,1.46
						C624.75,387.03,624.13,386.97,623.51,386.85z"/>
					<path class="st9" d="M639.09,388.22c-1.61-0.21-1.59-0.23-1.11-1.53c0.46-1.27,1.37-0.76,2.06-0.72
						c1.29,0.06,0.44,0.95,0.32,1.53C640.2,388.24,639.68,388.47,639.09,388.22z"/>
					<path class="st9" d="M610.63,383.44c0.9-0.06,1.25,0.24,0.91,1.11c-0.44,1.1-0.55,1.2-1.83,1.09c-1.14-0.1-1.13-0.19-0.73-1.46
						C609.29,383.22,609.92,383.33,610.63,383.44z"/>
					<path class="st9" d="M607.68,448.14c-0.08,0.11-0.2,0.31-0.37,0.48c-0.33,0.33-0.67,0.66-1.05,0.94
						c-2.33,1.7-2.96,1.67-4.04-0.25c-0.12-0.19,0.02-0.71,0.21-0.84c1.09-0.68,2.19-1.35,3.36-1.87
						C606.97,446.08,608.08,446.98,607.68,448.14z"/>
					<path class="st9" d="M603.48,443.29c1.17,0.05,1.66,1.18,0.87,1.86c-0.86,0.74-1.9,1.33-2.89,1.94
						c-0.16,0.11-0.54,0.05-0.72-0.04c-0.25-0.15-0.43-0.39-0.61-0.61c-0.71-0.92-0.65-1.08,0.67-1.84
						c0.57-0.34,1.14-0.68,1.73-0.97C602.87,443.46,603.26,443.36,603.48,443.29z"/>
					<path class="st9" d="M653.27,414.46c-0.21,0.59-2.39,2.44-3.09,2.59c-0.16,0.04-0.41,0.03-0.47-0.05
						c-0.48-0.66-0.94-1.34-1.37-2.03c-0.05-0.07,0.1-0.33,0.22-0.4c0.95-0.55,1.88-1.17,2.89-1.57
						C652.62,412.54,653.63,413.42,653.27,414.46z"/>
					<path class="st9" d="M677.95,396.87c0.16,0.16,0.76,0.43,0.76,0.82c0,0.52-0.31,1.22-0.75,1.67c-0.53,0.54-1.31,0.94-2.02,1.31
						c-0.24,0.12-0.74,0.06-0.91-0.1c-0.44-0.38-0.79-0.84-1.1-1.31c-0.11-0.18-0.14-0.52,0-0.72
						C674.32,397.9,676.87,396.77,677.95,396.87z"/>
					<path class="st9" d="M635.42,423.1c1.57,0.08,2.04,1.15,1.37,2.11c-0.19,0.28-0.43,0.6-0.72,0.77
						c-0.77,0.45-1.93,1.3-2.32,1.15c-0.75-0.31-1.09-1.18-1.56-1.85c-0.06-0.08,0.02-0.36,0.12-0.42
						C633.44,424.2,634.6,423.56,635.42,423.1z"/>
					<path class="st9" d="M592.93,450.51c1,0.07,1.39,1.16,0.74,2.1c-0.14,0.19-0.34,0.36-0.52,0.53c-2.18,1.98-3.49,1.85-4.06-0.39
						c-0.03-0.14,0.01-0.37,0.12-0.51C589.68,451.61,592.21,450.46,592.93,450.51z"/>
					<path class="st9" d="M584.52,462.53c-0.79,2.1-3.46,3.2-5.43,2.34c-1.66-0.73-2.17-2.04-2.24-3.62
						c-0.05-1.28,1.99-3.4,4.29-3.32C583.4,458.01,585.28,460.54,584.52,462.53z"/>
					<path class="st9" d="M665.89,404.3c2.03,0.16,3.8,2.28,3.46,4.1c-0.37,1.99-3.77,3.9-5.45,2.86c-1.49-0.92-2.63-2.02-2.35-3.89
						C661.81,405.63,663.95,404.15,665.89,404.3z"/>
				</g>
				<path class="st8" d="M495.21,390.28c-1.69-10.63,4.27-20.75,9.94-29.34c5.3-8.05,11.39-15.52,18.32-22.25
					c14.51-14.09,32.14-24.91,51.28-31.58c3.74-1.3,7.54-2.49,11.37-3.51c3.77-1,7.55-1.66,11.37-2.42
					c0.93-0.18,1.08-1.72,0.01-1.76c-9.62-0.34-19.38,1.94-28.44,5c-9.53,3.21-18.67,8.3-27.05,13.78
					c-16.5,10.78-30.88,25.02-40.9,41.95c-5.19,8.79-9.95,20.05-6.19,30.2C494.99,390.51,495.23,390.45,495.21,390.28L495.21,390.28
					z"/>
				<path class="st8" d="M471.24,360.84c0.99-2.84,1.61-5.77,2.7-8.59c1.22-3.15,2.76-6.17,4.42-9.15
					c3.57-6.38,8.26-12.18,13.28-17.68c9.57-10.49,20.92-19.6,32.44-28.26c0.63-0.47-0.07-1.28-0.73-0.88
					c-12.84,7.85-24.52,17.35-34.32,28.27c-4.92,5.48-9.21,11.47-12.63,17.8c-2.94,5.45-5.81,12.33-5.56,18.44
					C470.83,360.99,471.17,361.03,471.24,360.84L471.24,360.84z"/>
			</g>
			<path class="st16" d="M416.1,508.59c0,0-20.54,17.51-8.21,37.88c12.32,20.36,39.02,57.02,36.56,76.98c0,0,11.51-6.11,16.02-6.52
				c0,0,0.41-14.66-13.97-39.51C440.37,566.83,406.25,539.95,416.1,508.59z"/>
			<path class="st15" d="M542.62,588.15c0,0,21.09-19.55,24.65-30.96l4.11-3.53c0,0,50.93-13.58,72.02-28.51c0,0,4.93-1.09,7.4,8.15
				c2.46,9.23,1.09,29.05-9.58,35.3c-10.68,6.25-35.87,13.03-35.87,13.03l-16.7,28.51C588.63,610.14,516.88,629.96,542.62,588.15z"
				/>
			<path class="st16" d="M586.17,609.6c7.22-2.88,18.34-27.44,18.34-27.44c61.06-9.52,43.17-48.7,43.17-48.7
				c-6.26,29.75-56.59,36.23-56.59,36.23s-7.94,27.16-18.89,36.93C572.2,606.61,566.45,617.48,586.17,609.6z"/>
			<path class="st19" d="M390.18,445.42c0,0,15.26,2.07,37.24-5.41l11.46,13.44c0,0-8.16,10.9-27.33,10.62
				C410.71,464.6,391.58,450.83,390.18,445.42z"/>
			<g>
				<path class="st20" d="M253.74,375.64c0,0,7.14-31.33-2.05-46.49l-6.27,2.26c0,0-6.64-26.45,19.08-31.66c0,0,4.46,1.46,5.39,8.25
					c0,0,5.32-12.02,31.07-23.96c25.75-11.94,11.51-18.48,11.51-18.48l19.23,2.1c0,0,12.37-10.01,0.91-20.63
					c0,0,10.17-6.73,29.96,1.3c0,0,3.99-15.86-11.66-24.55c0,0,32.48,0.15,44.68,31.05l0.32,2.12c0,0,10.49-5.24,13.75-4.04
					c0,0-5.86,11.56-4.59,20.05c1.27,8.49,1.18,29.16,0.4,37.57c-0.78,8.4,0.52,34.62,11.12,55.33c0,0-33.21-11.57-66.31,2.6
					c0,0-2.7-38.1-11.2-42.68c-8.5-4.58,0,0,0,0s-52.93,23.86-61.98,23.89c0,0-10.86,13.03-10.41,30.77
					C266.69,380.43,257.88,374.98,253.74,375.64z"/>
				<path class="st21" d="M383.35,438.66c0,0,6.46,11.29,12.6,10.55c6.15-0.74,30.7-10.36,30.7-10.36l-7.91-11.65
					C418.73,427.2,383.55,434.17,383.35,438.66z"/>
			</g>
			<path class="st17" d="M370.1,485.78c0,0,4.52,0,8.22,2.85c0,0-13.27,5.32-18.07,14.25c0,0,3.29-2.04,9.86-1.63
				c0,0-9.86,12.22-6.98,29.73c0,0,0.41-2.44,6.16-7.33c0,0-1.64,12.62,7.8,30.14c0,0-1.64-8.15,0.41-13.44
				c0,0,6.98,17.92,14.79,28.92v-4.48c0,0,23.41,27.7,28.34,43.18c0,0-6.16-38.29-15.2-52.55l0.82,14.25c0,0-3.28-11.4-11.91-20.77
				l-1.64,3.66c0,0-10.68-18.33-4.11-27.69c0,0-8.63,1.63-9.86,4.88c0,0,1.23-11.81,9.45-16.29c0,0-9.04-3.67-14.38-1.63
				c0,0,15.61-11.81,24.65-10.59c0,0-2.88-6.11-7.39-5.7c0,0,11.5-3.66,17.66-2.44C408.71,493.11,407.89,470.71,370.1,485.78z"/>
			<path class="st17" d="M460.88,624.67c0,0-12.74,10.59-18.08,11c-5.34,0.41-2.05,1.45-2.05,1.45s16.85,2.63,24.24-3.89
				c0,0-0.41,5.29-3.7,7.34c0,0,30.81-3.26,47.65-15.08C508.94,625.48,483.47,614.49,460.88,624.67z"/>
			<path class="st17" d="M564.81,573.35c0,0-10.68,14.66-19.72,18.33c-9.04,3.66-17.66,11.81-18.07,20.77
				c-0.41,8.96,11.09,10.19,23,6.11c11.91-4.07,20.13-14.66,23.42-24.85c3.28-10.18,5.75-25.66,11.09-30.14c0,0-7.39,3.26-9.86,5.29
				c0,0,0-6.92,2.06-9.78C576.72,559.09,569.33,565.21,564.81,573.35z"/>
			<path class="st17" d="M586.99,557.06c0,0,22.32,8.42,36.69-2.58c14.38-11,14.52-17.65,7.12-15.21
				C623.41,541.71,602.59,554.61,586.99,557.06z"/>
			<path class="st22" d="M283.13,334.86c-3.91,2.48-8.09,2.91-9.34,0.96c-1.25-1.94,0.9-5.52,4.8-8c3.91-2.48,8.09-2.91,9.34-0.96
				C289.18,328.81,287.03,332.39,283.13,334.86z"/>
			<path class="st22" d="M278.89,316.7c0,0,19.31-25.01,47.67-39.06C326.56,277.64,263.49,300.46,278.89,316.7z"/>
			<path class="st21" d="M358.05,225.92c-0.82-0.08,21.9,14.66,24.37,37.74c0,0,8.47,2.82,12.87-4.62c1.64-2.77,0.62-2.09,0.62-2.09
				S388.45,228.63,358.05,225.92z"/>
			<path class="st23" d="M227.55,357.35c0,0-34.66,8.9-36.24,16.85c-1.58,7.94,3.4,16.18,3.4,16.18s-41.79,11.79-83.8,0.5
				c0,0-43.7-27.57-60.43-21.13c-16.73,6.45-20,15.16-9.47,28.28c10.52,13.11,39.36,30.4,87.97,37.58l4.94,2.12
				c0,0,16.43,36.25,80.33,40.83c68.01,4.88,89.48-33.65,89.48-33.65s93.69-8.16,114.75-19.48c21.06-11.32,30.68-42.96-2.8-57.5
				c-33.48-14.54-65.77-0.33-75.12,6.43c-9.35,6.77-41.04,26.06-51.93,21.37c-10.89-4.69-30.03-18.18-30.03-18.18
				s-21.69,7.07-25.35,6.07C233.24,383.61,224.19,377.59,227.55,357.35z"/>
			<path class="st24" d="M133.91,437.72c0,0-25.88-23.9-52.71-37.2c-17.18-8.52-30.67-13.58-36.97-7.06
				C44.23,393.46,45.46,419.12,133.91,437.72z"/>
			<path class="st24" d="M381.6,404.32c0,0-25.06-1.63-35.74,2.85c0,0-18.48,19.55-17.25,23.62c1.23,4.08,61.2-2.44,80.92-15.48
				c11.38-7.52,20.54-35.43-17.25-46.43c0,0,27.38-2.71,38.89,21.32c11.5,24.03-2.74,38.55-61.89,47.52
				c-59.15,8.96-65.56,7.18-65.56,7.18s16.68-27.14,24.89-35.28c8.22-8.15,13.56-14.26,13.56-14.26S352.44,390.06,381.6,404.32z"/>
			<path class="st24" d="M257.14,393.73c0,0,0.18,9.93,5.75,8.96c5.57-0.97,2.92-4.74,2.92-4.74S262.07,398.62,257.14,393.73z"/>
			<path class="st25" d="M216.86,397.66c-16.36-2.18-63.27,5.99-65.96,10.37c-2.7,4.38,11.18,13.86,51.89,16.82
				C243.51,427.81,233.23,399.84,216.86,397.66z"/>
			<path class="st25" d="M395.14,382.69c-1.14,4.82-9.05,7.1-17.66,5.1c-8.61-2-14.67-7.53-13.53-12.35
				c1.14-4.82,9.04-7.1,17.66-5.1C390.22,372.34,396.28,377.87,395.14,382.69z"/>
			<path class="st25" d="M218.89,368.96c0.85,2.55-2.16,5.84-6.73,7.34c-4.56,1.5-8.96,0.64-9.81-1.92
				c-0.85-2.55,2.16-5.84,6.73-7.33C213.65,365.55,218.04,366.4,218.89,368.96z"/>
			<g>
				<path class="st7" d="M250.56,329.94c0,0-35.58,26.72-19.36,50.49c7.16,10.5,22.12-4.38,22.12-4.38S261.31,334.77,250.56,329.94z
					"/>
				<path class="st7" d="M276.43,349.21c0,0-12.75,15.62-8.9,30.69c0,0,13.12,19.55,28.6,16.57c15.48-2.98,45.97-26.13,50.57-27.75
					c0,0,2.96-36.01-6.83-43.89C339.87,324.83,296.48,348.39,276.43,349.21z"/>
			</g>
			<path class="st21" d="M409.66,252.91c0,0-12.65,7.86-15.73,17.27c-1.85,5.63,5.14,11.95,2.88,39.64
				c-1.03,12.66-1.03,18.74-10.68,33.4c-1.64,1.83-9.45,7.94-24.65,11.4c0,0-3.29-22.4-7.8-30.55c-4.52-8.15,3.28-15.07,3.28-15.07
				s-29.53,8.5-41.49,15.07c-13.35,7.33-39.91,24.91-45.39,17.31c0,0-0.41,3.46,3.7,5.91c4.11,2.44,24.03-1.36,59.63-20.37l6.46-2.1
				l4.22,11.33l2.61,32.56c0,0,32.44-14.37,68.04-2.69c0,0,3.56,2.99-3.28-11.4c-6.85-14.39-8.22-27.15-6.57-36.66
				c1.64-9.5,2.19-31.77,0.82-40.19C404.33,269.36,406.92,255.9,409.66,252.91z"/>
			<path class="st21" d="M258.24,316.61c0,0,1.23-7.74,7.81-3.67c6.57,4.07,2.05,34.21-1.23,41.14
				C264.81,354.08,267.27,325.98,258.24,316.61z"/>
			<g>
				<path class="st9" d="M326.79,244.61c12-4.14,23.96-2.87,36.39,1.04c-3.09-12.07-11.1-19.87-22.58-25.51
					c0.71-0.22,0.97-0.39,1.21-0.37c17.44,1.26,33.24,6.43,46.4,17.65c5.01,4.27,8.52,9.44,9.9,15.75c0.07,0.35,0.26,0.68,0.46,1.21
					c5-2.71,9.97-5.25,16.35-2.92c-0.84,1.11-1.46,1.85-2,2.64c-5.22,7.5-7.27,15.53-4.99,24.46c2.14,8.39,1.86,16.94,0.82,25.4
					c-1.34,10.93-1.78,21.82-0.38,32.78c1.28,10.01,5.13,19.21,9.97,28.1c0.46,0.85,1.54,1.47,2.44,2.03
					c9.13,5.71,15.93,13.27,18.78,23.24c2.63,9.17,1.37,18.28-3.89,26.49c-1.35,2.11-4.31,6.43-6.7,7.54
					c-2.79,1.3-1.6,3.26-1.37,5.43c0.4,3.89,1.76,4.61,4.05,7.98c5.12-6.5,10.5-12.43,17.65-16.83c-0.87,1.08-1.64,2.26-2.63,3.24
					c-4.23,4.23-7.05,9.07-8.19,14.85c-0.23,1.15-1.94,2.04-3.33,3.4c3.85,5.32,8,11.06,12.15,16.79c-0.05,0.08-0.1,0.16-0.14,0.23
					c-2.59-1.75-5.18-3.5-7.91-5.35c-1.38,2.98-3.93,4.22-7.27,4.41c1.41-1.36,2.8-2.74,4.23-4.09c1.11-1.05,1-2.11,0.05-3.17
					c-2.55-2.87-5.11-5.73-7.66-8.59c-1.14-1.27-2.43-1.5-4-0.65c-8.41,4.58-17.64,6.46-27.21,7.21c-0.29,0.02-0.57,0.07-1.44,0.19
					c5.19,4.42,8.93,9.77,14.9,12.56c2.19,1.04,5.28,0.57,7.94,0.43c2.03-0.1,4.01-0.83,6.03-1.2c0.75-0.13,1.55-0.04,2.36,0.21
					c-3.41,3.24-7.91,3.33-12.59,3.96c4.86,4.21,10.52,6.64,15.94,9.42c-11.02-3.15-20.03-9.76-29.71-15.41
					c-1.63,5.61-5.36,9.26-10.6,11.83c-6.84,3.34-13.82,6.19-21.39,7.83c-5.23,1.13-10.01,3.34-13.27,7.69
					c-0.58,0.78-1.35,1.44-2.04,2.15c-0.04,0.04-0.15,0.02-0.75,0.08c0.66-1.6,1.11-3.06,1.83-4.39c2.19-4,5.64-6.78,10.04-8.46
					c8.34-3.21,16.78-6.21,25.03-9.61c2.28-0.94,4.19-2.87,5.98-4.6c1.83-1.76,1.51-4.89-0.31-6.67
					c-5.29-5.17-10.17-8.82-15.37-14.06c-1.03-1.03-2.38-2.7-3.75-2.47c-21.57,3.6-43.32,6.04-65.17,7.27
					c-5.61,0.32-8.58,2.05-11.69,6.09c-7.75,10.07-18.68,16.41-30.87,20.82c-21.5,7.77-43.82,9.12-66.53,6.62
					c-16.26-1.79-22.11-5.57-36.88-12.44c-11.37-5.29-21.49-12.12-28.2-22.46c-3.36-5.17-7.42-7.45-14.07-7.73
					c-6.7-0.29-13.36-2.39-19.96-4c-16.42-4.02-31.74-10.48-46.09-18.97c-6.28-3.71-12.32-7.72-16.85-13.39
					c-4.12-5.15-6.54-10.94-6.94-17.34c-0.17-2.79,0.88-5.34,3.27-7.35c4.6-3.86,9.89-6.67,15.89-7.64
					c3.73-0.6,7.77-0.13,11.58,0.41c16.65,2.35,30.91,9.67,43.88,19.44c1.54,1.16,3.1,1.8,5.07,2.11
					c13.73,2.18,27.5,3.83,41.45,3.88c16.49,0.06,22.93-1.41,39.34-4.84c-0.57-0.97-1.06-1.78-1.54-2.61
					c-4.16-7.26-2.6-14.46,4.28-19.53c6.48-4.78,14.14-6.91,22.04-8.45c2.55-0.49,5.16-0.75,7.67-1.39
					c0.87-0.22,1.89-1.15,2.19-1.97c2.4-6.52,6.38-12.12,11.13-17.28c1.35-1.46,2.72-2.9,3.95-4.45c0.34-0.44,0.37-1.25,0.26-1.84
					c-1.23-6.18-0.31-12.2,1.68-18.08c2.31-6.85,7.54-11.49,14.3-14.14c4.97-1.95,8.12-2.15,11.81,3.22
					c3.18-2.88,6.24-5.89,9.56-8.62c6.9-5.65,14.51-10.33,22.63-14.29c3.87-1.89,7.73-3.79,10.62-7.01
					c1.85-2.07,1.79-3.51-0.67-4.96c-1.79-1.06-3.8-1.8-6.35-2.97c2.05-0.28,3.56-0.74,5.04-0.65c6.32,0.35,12.63,0.89,18.95,1.3
					c0.76,0.05,1.88-0.07,2.26-0.52c2.45-2.96,3.69-6.24,2.14-10c-1.38-3.35-3.32-6.28-6.75-8.14c-0.67-0.36-1.29-0.82-1.93-1.23
					C326.73,245.12,326.76,244.86,326.79,244.61z M74.03,397.69c0.95-0.13,1.12-0.2,1.26-0.16c0.69,0.19,1.38,0.36,2.04,0.61
					c25.25,9.31,46.95,23.25,63.33,43.8c7.17,9,16,15.81,26.77,20.34c30.83,12.96,53,16.33,86.01,9.98
					c12.94-2.48,24.99-7.19,35.25-15.31c5.39-4.27,9.44-9.53,13.31-15.04c5.67-8.08,11.88-15.81,17.69-23.81
					c4.73-6.51,8.77-13.49,15.29-18.7c0.08-0.06,0.02-0.27,0.05-0.79c-5.26,0.59-10.44,1.18-16.29,1.84
					c1.67-1.09,2.83-1.94,4.08-2.65c8.28-4.73,16.95-8.22,26.99-6.79c10.37,1.48,19.77,5.43,28.73,10.41
					c1.65,0.92,3.14,2.09,4.7,3.15c-5.51-0.75-10.71-2.07-15.98-3c-7.01-1.24-14.07-2.26-21.14-3.17c-2.83-0.37-5.22,0.43-7.36,2.66
					c-11.51,12.07-21.5,25.19-30.84,38.77c-0.28,0.41-0.45,0.88-0.75,1.48c0.77-0.01,1.32,0.01,1.87-0.03
					c7.98-0.59,15.99-1.03,23.95-1.83c16.3-1.62,32.67-2.81,48.8-5.64c13.77-2.41,28.06-5.7,40.64-11.57
					c7.46-3.48,10.26-9.87,11.78-17.4c2.14-10.6-0.34-19.85-8.47-27.61c-6.18-5.9-13.58-10-22.19-11.63
					c-24.41-4.63-47.01-0.88-67.15,13.36c-9.84,6.95-19.93,13.56-31.61,17.52c-3.51,1.19-7.37,2.15-11.05,2.06
					c-7.3-0.17-13.55-3.42-19.18-7.66c-4.22-3.18-8.45-6.35-12.56-9.65c-2.82-2.26-5.66-3.34-9.31-1.72
					c-3.08,1.36-6.3,2.44-9.49,3.56c-5.21,1.83-10.57,2.72-16.78,2.09c1.49-0.74,2.37-1.18,3.34-1.66
					c-4.72-7.71-3.75-16.03-3.37-24.56c-9.65,3.16-19.28,5.78-27.72,10.92c-6.62,4.03-7.81,9.49-4.48,16.61
					c0.8,1.72,1.68,2.14,3.6,1.64c3.69-0.96,7.46-1.66,11.39-2.5c-0.18,0.48-0.18,0.67-0.28,0.72c-0.75,0.41-1.48,0.91-2.29,1.17
					c-7.44,2.31-14.77,5.05-22.37,6.75c-22.7,5.1-35.67,3.9-58.46,0c-4.24-0.72-8.44-1.6-13.21-2.51
					c9.8,8.47,18.15,17.35,24.88,27.85c-0.53-0.08-0.72-0.05-0.8-0.12c-0.43-0.44-0.84-0.9-1.24-1.36
					c-7.33-8.5-15.16-16.54-24.13-23.55c-14.02-10.96-29.38-19.31-47.66-22.26c-8.02-1.3-15.47-0.66-22.13,4.07
					c-3.52,2.5-4.64,5.62-3.47,9.67c1.23,4.25,3.28,8.11,6.51,11.33c10.36,10.29,22.42,18.61,36.27,23.91
					c10.91,4.17,22.56,6.62,33.93,9.67c3.87,1.04,7.88,1.59,11.83,2.36C111.97,417.91,93.93,407.09,74.03,397.69z M408.04,255.13
					c-0.15-0.18-0.3-0.35-0.45-0.53c-4.28,1.94-8.55,3.88-13.22,6c-1.25-8.76-5.37-15.87-11.75-21.83
					c-6.32-5.89-13.82-9.72-23.06-11.58c0.76,0.96,1.2,1.47,1.6,2.01c4.08,5.56,6.16,11.63,4.86,18.38
					c-0.31,1.59-1.45,3.04-2.37,4.87c-0.49-0.73-0.64-0.85-0.65-0.97c-0.04-0.57-0.04-1.15-0.05-1.78
					c-8.47-3.25-16.98-5.52-26.41-3.31c6.3,5.84,5.7,12.17,2.5,18.87c-2.37,4.97-7.19,5.99-12.32,6.84c0.73-0.79,1.45-1.58,2.6-2.84
					c-3-0.31-5.51-0.57-8.26-0.85c0.46,4.78-2.68,7.31-6.01,9.26c-7.33,4.27-14.96,8.09-22.39,12.21
					c-7.28,4.04-14.01,8.71-18.92,15.37c-1.14,1.54-1.87,3.03-1.41,4.97c0.26,1.08,0.42,2.31,0.08,3.32
					c-0.28,0.83-1.34,1.42-2.06,2.12c-0.4-0.62-0.97-1.19-1.17-1.86c-0.69-2.3-1.17-4.65-1.89-6.94c-1.18-3.76-3.47-5.09-8.61-3.92
					c-1.33,0.3-2.6,1.11-3.73,1.9c-6.07,4.26-7.87,10.62-9,17.14c-0.43,2.45,0.08,5.06,0.16,7.59c0.41,0.11,0.83,0.23,1.24,0.35
					c1.17-1.49,2.34-2.97,3.84-4.87c1.35,2.2,3.39,4.26,3.96,6.63c3.33,13.89,4.55,27.83,0.15,41.74c-0.13,0.4-0.17,0.82-0.14,0.67
					c3.41,1.15,6.6,2.23,9.76,3.3c-1.1-10.2,3.44-18.86,8.25-27.5c-0.63-0.33-1.09-0.61-1.59-0.84c-3.12-1.41-5.05-3.63-5.2-6.95
					c-0.08-1.92-0.18-3.91,0.27-5.75c1.89-7.8,7.09-13.45,13.75-18.07c0.32-0.22,0.78-0.27,1.62-0.54
					c-2.27,2.42-4.22,4.44-6.11,6.52c-3.34,3.67-5.94,7.72-6.93,12.55c-1.23,5.97,2.28,10,8.75,10c4.4,0,8.72-0.47,12.77-2.21
					c5.68-2.45,11.37-4.88,17-7.41c9-4.06,17.97-8.18,26.94-12.3c3.5-1.6,6.96-3.27,10.44-4.92c0.15,0.18,0.31,0.36,0.46,0.54
					c-0.35,0.18-0.73,0.32-1.04,0.55c-2.95,2.23-3.06,2.97-1.07,6.09c0.77,1.22,1.55,2.44,2.17,3.73c4.01,8.4,5.15,17.33,5.51,26.4
					c0.09,2.38,0.25,4.75,0.39,7.45c21.14-7.26,41.81-9.23,62.97-1.41c-8.53-11.61-9.91-14.34-11.33-24.56
					c-0.63-4.5-1.1-9.09-0.88-13.61c0.54-11.16,1.45-22.31,2.35-33.46c0.35-4.29-0.02-8.44-0.99-12.65
					c-0.65-2.86-0.89-5.9-0.65-8.81C403.23,264.89,405.08,259.82,408.04,255.13z M321.7,370.37c4.7-2.18,9.01-4.35,13.48-6.18
					c4.09-1.67,4.16-1.5,5.58,2.43c0.04,0.11,0.24,0.18,0.34,0.26c1.79,0.07,2.65-0.79,2.69-2.41c0.1-4.32,0.28-8.64,0.25-12.96
					c-0.05-7.34-1.24-14.55-3.17-21.66c-0.39-1.44-1.21-2.78-1.8-4.08c-7.41,4.19-14.29,8.29-21.38,12.03
					c-12.07,6.37-24.57,11.71-38.73,12.58c-0.82,0.05-1.94,0.77-2.3,1.46c-1.96,3.81-3.83,7.67-5.54,11.59
					c-2.11,4.84-2.81,9.92-2.12,15.13c0.15,1.08,0.74,2.31,1.55,3.07c4.95,4.65,11,7.87,17.15,10.83c3.64,1.75,7.67,2.3,11.79,0.97
					c1.34-0.44,1.73-0.96,1.49-2.23c-1.44-7.67,0.28-15,2.94-22.16c3.82-10.27,12.83-16.64,23.51-17.07
					c3.52-0.14,6.2,0.86,7.91,4.13C329.68,359.75,324.88,364.18,321.7,370.37z M251.4,331.55c-2.65,1.94-4.96,3.45-7.03,5.22
					c-1.63,1.39-2.93,3.11-4.41,4.67c-7.6,7.98-11.78,17.28-11.35,28.05c0.14,3.49,1.46,6.99,2.63,10.37
					c0.34,1.01,1.95,2.21,3.06,2.28c1.61,0.11,3.28-0.72,4.92-1.15c-4.02-12.65,2.48-24.23,14.97-26.62
					C253.99,347,254.16,339.58,251.4,331.55z M418.73,427.2c-1.62,0.62-3.6,1.55-5.69,2.15c-7.93,2.28-15.91,4.42-23.84,6.7
					c-0.76,0.22-1.86,1.08-1.85,1.63c0.04,2.13,3.7,6.09,6.01,6.28c3.98,0.32,8.01,0.51,12,0.32c7.12-0.35,13.73-2.38,19.64-6.05
					C422.88,434.5,420.85,430.93,418.73,427.2z M316.64,365.36c0.05-2.48-1.83-4.01-4.03-3.29c-2.53,0.83-5.32,4.91-5.1,7.47
					c0.18,2.08,1.61,3.01,3.78,2.45C314.31,371.2,316.58,368.4,316.64,365.36z M253.81,360.05c-2.52,2.01-4.82,3.85-7.12,5.68
					c0.11,0.16,0.24,0.33,0.35,0.49c1.26-0.32,2.51-0.69,3.78-0.97C254.31,364.49,254.59,364.1,253.81,360.05z"/>
				<path class="st9" d="M650.25,526.78c-0.46-1.25-1.26-2.21-2.52-3c-3.16-2-5.91-0.36-8.56,1.23
					c-10.47,6.33-21.37,11.94-32.84,16.56c-10.94,4.41-21.9,8.72-33.93,9.91c-3.34,0.33-6.06,1.52-7.02,4.97
					c-0.29,1.06-1.13,1.96-1.56,3c-5.02,12.03-13.96,20.95-25.2,28.03c-3.62,2.28-7.34,4.42-10.94,6.72
					c-5.93,3.79-10.79,8.47-13.58,14.84c-0.21,0.48-1.1,0.86-1.73,0.95c-0.75,0.11-3.11-0.16-3.87-0.14
					c-2.41,0.02-2.08-0.17-6.45-0.39c-13.12-1.18-25.67,1.46-38.46,3.37c-0.23-0.6-0.56-1.13-0.63-1.68
					c-1.43-10.63-6.73-19.83-12.32-28.88c-7.16-11.59-16.18-21.97-25.09-32.37c-3.16-3.7-3.6-7.98-4.89-12.02
					c0.05,0.05,0.1,0.11,0.16,0.16c-0.24-0.6-0.47-1.22-0.68-1.85c-3.87-9.44-3.65-20.2-1.31-30.01c-0.52,0.61-0.96,1.12-1.37,1.63
					c-3.74,4.64-4.78,10.12-5.54,15.7c-1.09,7.91,1.17,15.22,5.54,21.79c3.86,5.8,8.41,11.22,12.91,16.62
					c6.52,7.82,13.54,15.33,18.03,24.44c2.34,4.75,4.49,9.58,6.42,14.48c1.64,4.16,2.84,8.48,4.17,12.53
					c-0.44,0.38-0.49,0.45-0.55,0.48c-0.52,0.17-1.04,0.36-1.56,0.5c-5.82,1.61-10.63,4.59-14.28,9.15
					c-1.36,1.7-2.75,3.43-2.06,6.07c0.96-0.85,1.79-1.5,2.55-2.23c4.27-4.12,9.21-7.21,15.08-9.04c7.57-2.36,15.42-2.84,23.26-2.82
					c11.1,0.02,22.2,0.58,33.3,0.88c3.18,0.09,3.64-0.4,4.58-3.32c0.71-2.18,1.41-4.47,2.69-6.38c3.79-5.64,8.94-10.2,15.19-13.19
					c7.24-3.48,13.2-8.11,18.28-13.95c5.63-6.46,11.24-12.97,14.61-20.78c1.48-3.43,3.77-4.8,7.61-5.21
					c4.93-0.53,9.91-1.36,14.61-2.81c6.61-2.02,13.11-4.49,19.43-7.21c10.21-4.4,20.57-8.63,29.35-15.44
					c1.66-1.29,3.82-1.16,4.96,0.62c0.89,1.4,1.21,3.16,1.65,4.78c0.23,0.85,0.06,1.78,0.25,2.64c1.24,5.63,1.51,11.19-0.59,16.74
					c-3.41,9-8.72,16.2-18.18,20.78c-8.05,3.91-16.43,5.04-25.19,5.25c-1.52,0.05-2.33,0.61-2.71,1.97
					c-0.43,1.58-0.8,3.21-1.52,4.69c-3.11,6.36-6.34,12.65-9.52,18.98c-0.26,0.52-0.49,1.07-0.74,1.6c0.26,0.17,0.53,0.34,0.79,0.51
					c1.6-1.69,3.51-3.19,4.72-5.09c3.47-5.41,6.6-11.02,10.01-16.48c0.55-0.88,1.72-1.74,2.76-1.96c5.1-1.09,10.24-2,15.38-2.89
					c15.11-2.64,23.34-10.87,28.34-24.07C655.13,546.44,653.66,536.17,650.25,526.78z"/>
				<path class="st9" d="M426.55,635.52c-0.61-0.73-1.35-1.39-1.8-2.2c-7.55-13.56-17.34-25.74-26.98-37.97
					c-5.01-6.34-10.83-12.13-16.37-18.1c-3.08-3.31-6.28-6.54-9.52-9.72c-9.52-9.33-14.29-20.85-17.51-33.08
					c-1.74-6.59-2.4-13.23-0.36-19.89c0.2-0.64,0.35-1.3,0.56-1.93c0.09-0.28,0.28-0.53,0.86-0.81c0.03,1.39,0.03,2.8,0.09,4.19
					c0.6,13.8,4.1,26.88,11.81,38.73c2.84,4.36,6.51,8.28,10.03,12.22c9.21,10.29,18.78,20.29,27.76,30.74
					c6.98,8.13,13.5,16.66,18,26.32c1.67,3.59,2.92,7.35,4.36,11.03C427.18,635.21,426.87,635.36,426.55,635.52z"/>
				<path class="st9" d="M467.7,482.43c1.8,1.75,4.05,3.26,5.31,5.31c4.67,7.57,9.24,15.2,13.39,23.02c3,5.66,5.74,11.53,7.68,17.55
					c1.35,4.2,1.16,8.81,1.65,13.23c-0.37,0.08-0.76,0.17-1.14,0.25c-0.87-1.85-2.05-3.63-2.55-5.55
					c-3.86-14.82-11.26-28.37-17.8-42.21c-1.49-3.14-3.79-5.95-5.71-8.9c-0.48-0.75-0.95-1.49-1.43-2.24
					C467.31,482.73,467.5,482.58,467.7,482.43z"/>
				<path class="st9" d="M455.96,421.81c-0.28,1.69-0.48,2.89-0.68,4.08c5.55-5.46,12.09-9.14,19.77-11.03
					c0.78-0.19,1.66-0.05,2.7-0.07c-3.71,2.39-7.4,4.39-10.59,6.93c-4.08,3.26-7.84,6.89-11.58,10.5c-1.16,1.12-2.15,1.74-3.68,0.96
					c-1.42-0.72-1.62-1.83-1.15-3.24C451.72,427,453.01,424.27,455.96,421.81z"/>
				<path class="st9" d="M365.6,490.64c-2.74,3.03-5.5,5.83-7.95,8.86c-2.62,3.24-4.14,6.96-4.89,11c-0.31,1.66-1.13,3.23-1.73,4.89
					c-3.95-4.8,1.32-16.15,10.48-22.74c-0.09-0.17-0.19-0.33-0.29-0.5c-1.75,0.87-3.55,1.66-5.24,2.62
					c-1.81,1.01-3.52,2.17-5.77,3.59c0.23-3.75,2.71-5.52,5.31-7.2C359.55,488.53,362.71,488.28,365.6,490.64z"/>
				<path class="st9" d="M469.75,422.88c2.24-1.77,4.07-2.86,6.54-2.82c5.78,0.09,11.29,1.28,16.57,3.45
					c1.42,0.58,2.63,3.57,1.84,4.74c-0.26,0.38-1.22,0.71-1.66,0.56c-3.34-1.15-6.64-2.39-9.94-3.67
					C479.07,423.57,475.01,422.1,469.75,422.88z"/>
				<path class="st9" d="M434.7,647.78c-3.3,1.77-6.25,3.49-9.35,4.93c-0.76,0.35-2.01-0.2-3.03-0.33c0.26-0.87,0.27-1.93,0.83-2.59
					C425.39,647.12,430.95,646.08,434.7,647.78z"/>
				<path class="st9" d="M429.41,643.27c-3.55-0.93-7.13-1.78-10.62-2.87c-0.73-0.22-1.14-1.34-1.7-2.04
					c0.83-0.25,1.73-0.83,2.49-0.7C423.49,638.36,427.14,639.62,429.41,643.27z"/>
				<path class="st9" d="M259.86,394.33c-2.11,1.41-2.14,3.22-0.7,4.67c1.1,1.1,2.78,1.96,4.33,2.22c0.52,0.09,1.45-1.98,2.33-3.26
					c0.43,1.13,0.97,2.36,1.33,3.64c0.09,0.34-0.31,0.99-0.68,1.21c-2.38,1.39-4.88,1.78-7.4,0.32c-2.72-1.58-4.54-3.83-4.55-6.9
					c0-0.84,0.87-2.03,1.69-2.41c0.92-0.43,2.24-0.13,3.38-0.15C259.66,393.88,259.76,394.11,259.86,394.33z"/>
				<path class="st9" d="M232.13,392.53c2.34-1.43,6.64-0.66,6.3-5.16c1.56-0.39,2.95,0.01,3.14,1.43c0.12,0.87-0.7,2.24-1.54,2.77
					c-1.41,0.89-3.13,1.44-4.81,1.85c-0.98,0.24-2.11-0.09-3.17-0.16C232.09,393.01,232.11,392.77,232.13,392.53z"/>
				<path class="st9" d="M290.51,322.9c3.45-3.02,6.88-6.05,10.35-9.05c7.77-6.71,15.88-13.01,24.86-18.27
					c10.62-6.22,21.9-9.69,34.6-7.6c6.3,1.03,11.17,5.67,12.41,11.84c1.15,5.75-1.61,11.55-6.97,14.57
					c-0.37,0.21-0.82,0.27-1.81,0.59c0.69-0.97,1.01-1.52,1.43-2c2.95-3.38,3.35-7.35,2.67-11.44c-0.84-5.06-3.89-7.65-9.27-8.57
					c-7.31-1.24-14.27-0.06-20.91,2.69c-11.96,4.96-22.9,11.44-32.9,19.41c-3.82,3.04-8.45,5.2-12.73,7.73
					c-0.43,0.25-0.99,0.3-1.49,0.44C290.67,323.13,290.59,323.02,290.51,322.9z"/>
				<path class="st12" d="M736.44,566.5c-1.95,4.36-4.04,8.62-6.08,12.93c-3.34,7.07-8.47,26.11-18.64,40.13
					c-1.63,2.25-11.5,11.05-36.22,18.55c-4.61,1.4-24.78,0.25-29.61,0.12c-13.16-0.37-15.05-1.11-28.02,1.32
					c-14.65,2.73-28.24,8.11-42.84,7.98c-18.72-0.18-38.89-3.6-57.14,0.23c-4.98,1.04-9.64,3.35-14.53,4.86
					c-8.95,2.77-17.88,5.63-26.97,7.95c-6.46,1.65-13.2,1.68-19.86,0.64c-1.55-0.24-3.15-0.65-4.52-1.34
					c-7.18-3.64-14.65-4.06-22.38-2.15c-0.58,0.14-1.18,0.21-1.77,0.3c-0.14-0.19-0.28-0.4-0.41-0.59c1.24-0.91,2.34-2.22,3.74-2.66
					c7.5-2.34,15.07-3.17,22.26,0.93c4.46,2.54,9.12,2.1,13.86,1.53c8.48-1.04,16.46-3.75,24.46-6.39
					c13.32-4.4,26.79-8.42,40.8-10.3c8.38-1.13,30.09,2.18,38.56,2.03c28.34-0.47,42.53-9.17,70.87-9.57
					c7.52-0.11,19.92,1.77,27.37,0.91c7.99-0.92,10.64-3.17,18.04-5.8c26-9.23,29.47-29.72,29.92-31.21
					c2.31-7.82,4.22-15.13,7.76-22.47L736.44,566.5z"/>
			</g>
			<path class="st7" d="M245.93,365.06c-0.54,1.44-1.78,2.31-2.77,1.95c-0.99-0.36-1.36-1.83-0.82-3.27
				c0.54-1.44,1.78-2.32,2.77-1.95C246.1,362.15,246.47,363.62,245.93,365.06z"/>
			<path class="st17" d="M533.86,615.3"/>
			<path class="st17" d="M455.27,539.08c2.76-4.97,0.71-22.6,0.71-22.6c7.35,8.8,7.45,30.66,7.45,30.66c13.38-38.1-7-54.26-7-54.26
				c3.12,6.14-0.29,14.49-0.29,14.49c-3.89-3.28-7.52-11.43-7.52-11.43c-2.71,7.1-1.27,18.47-1.27,18.47
				c-6.43-5.3-12.36-20.33-12.36-20.33c-3.4,8.34,0.11,21.86,0.11,21.86c-5.57-3.92-8.12-11.8-8.12-11.8
				c-1.75,18.59,12.89,34.07,12.89,34.07c2.8,3.02,10.61,9.78,10.61,9.78c-6.44-5.29-7.04-19.39-7.04-19.39
				S450.29,537.16,455.27,539.08z"/>
		</g>
	</g>
	<rect x="102.56" y="760.36" class="st7" width="641.1" height="6.17"/>
	<g>
		<rect x="741" y="634.56" class="st7" width="5.7" height="132.04"/>
		<polygon class="st7" points="746.7,766.6 655.52,780.8 653.7,777.68 735.59,763.12 		"/>
	</g>
	<g>
		<rect x="98.86" y="634.56" class="st7" width="5.7" height="132.04"/>
		<polygon class="st7" points="98.86,766.6 190.04,780.8 191.86,777.68 109.97,763.12 		"/>
	</g>
</g>
</svg>
